<svg xmlns="http://www.w3.org/2000/svg" width="44" height="50.812" viewBox="0 0 44 50.812">
  <g id="adult" transform="translate(-8.305 -4.017)">
    <g id="Group_257" data-name="Group 257" transform="translate(8.902 4.612)">
      <g id="Group_243" data-name="Group 243" transform="translate(9.499)" opacity="0.3">
        <path id="Path_1340" data-name="Path 1340" d="M22.4,16.626a15.187,15.187,0,0,0,3.869,9.389,15.471,15.471,0,0,1-5.251-10.771c0-5.783,5.33-10.478,11.907-10.478a12.457,12.457,0,0,1,9.6,4.29A12.723,12.723,0,0,0,34.3,6.149c-6.577,0-11.907,4.695-11.907,10.477Z" transform="translate(-21.014 -4.767)" fill="#fff"/>
      </g>
      <path id="Subtraction_1" data-name="Subtraction 1" d="M21.192,19.879a32.865,32.865,0,0,1-10.649-1.812A43.4,43.4,0,0,1,0,12.63,11.812,11.812,0,0,1,5.537,4.463,52.225,52.225,0,0,1,15.52,0V2.226a2.472,2.472,0,0,0,.079.549,19.074,19.074,0,0,0,2.442,4.587,5.924,5.924,0,0,1,2.586-.6l.116,0a5.07,5.07,0,0,1,.7.051,7.688,7.688,0,0,1,1.3-.151l.12,0a5.813,5.813,0,0,1,2.09.421,17.931,17.931,0,0,0,2.264-4.32,2.332,2.332,0,0,0,.08-.534V0A52.5,52.5,0,0,1,37.27,4.463a11.807,11.807,0,0,1,5.537,8.167,46.546,46.546,0,0,1-10.86,5.437A33.816,33.816,0,0,1,21.192,19.879Z" transform="translate(0 29.769)" fill="#b31f24"/>
      <g id="Group_254" data-name="Group 254" transform="translate(13.412 29.709)">
        <g id="Group_252" data-name="Group 252" transform="translate(0 0)">
          <path id="Path_1347" data-name="Path 1347" d="M33.918,48.958a3.5,3.5,0,0,0-3.567.087,6.836,6.836,0,0,0-2.3,2.669c-4.4-6.482-.659-9.064.072-9.485.079-.04.119-.064.119-.064C29.359,46.329,33.656,48.807,33.918,48.958Z" transform="translate(-25.941 -42.167)" fill="#ffc619"/>
        </g>
        <g id="Group_253" data-name="Group 253" transform="translate(8.01)">
          <path id="Path_1348" data-name="Path 1348" d="M41.894,51.715a6.916,6.916,0,0,0-2.3-2.669,3.5,3.5,0,0,0-3.567-.087c.262-.151,4.56-2.629,5.672-6.792l.119.072c.731.413,4.48,2.995.079,9.477Z" transform="translate(-36.024 -42.167)" fill="#ffc619"/>
        </g>
      </g>
      <g id="Group_256" data-name="Group 256" transform="translate(17.634 22.193)">
        <g id="Group_255" data-name="Group 255">
          <path id="Path_1349" data-name="Path 1349" d="M31.256,32.705v.036a3.768,3.768,0,0,0,7.537,0v-.036A7.794,7.794,0,0,1,31.256,32.705Z" transform="translate(-31.256 -32.705)" fill="#fff"/>
        </g>
      </g>
    </g>
    <g id="Group_258" data-name="Group 258" transform="translate(8.305 4.017)">
      <path id="Path_1350" data-name="Path 1350" d="M52.3,46.911a12.411,12.411,0,0,0-5.815-8.579,51.955,51.955,0,0,0-9.71-4.386c.011-.133.019-.265.019-.388V32.237a10.871,10.871,0,0,0,3.895-7.947,2.865,2.865,0,0,0,1.412-5.2,12.763,12.763,0,0,0,.715-4c0-6.106-5.609-11.073-12.5-11.073S17.8,8.984,17.8,15.09a12.763,12.763,0,0,0,.715,4,2.865,2.865,0,0,0,1.4,5.2,10.532,10.532,0,0,0,3.916,8.006v1.264c0,.121.007.253.018.388a51.672,51.672,0,0,0-9.718,4.386,12.426,12.426,0,0,0-5.814,8.579.6.6,0,0,0,.249.586c7.073,4.888,14.267,7.332,21.531,7.332S44.687,52.387,52.038,47.5a.6.6,0,0,0,.258-.592Zm-27.9-4.188c-1.257-2.081-1.719-3.889-1.375-5.385a3.849,3.849,0,0,1,1.269-2.083,12.293,12.293,0,0,0,3.62,4.872c-.009,0-.019.006-.028.008a5.519,5.519,0,0,0-3.485,2.588Zm8.353-2.587-.023-.006a12.088,12.088,0,0,0,3.6-4.865c2.248,1.9,1.425,4.938-.1,7.461a5.53,5.53,0,0,0-3.474-2.589ZM40.708,23.1V19.778a1.679,1.679,0,0,1,0,3.317ZM18.989,15.09c0-5.449,5.078-9.882,11.32-9.882S41.62,9.641,41.62,15.09A11.5,11.5,0,0,1,41,18.616a2.894,2.894,0,0,0-.291-.03v-.514a.6.6,0,0,0-.237-.476,10.171,10.171,0,0,1-3.591-6.32.6.6,0,0,0-1.131-.187c-1.238,2.639-4.395,3.957-6.336,4.539a2.6,2.6,0,0,0,.241-1.012A2.416,2.416,0,0,0,29,12.894a.6.6,0,0,0-.445-.171.6.6,0,0,0-.427.21c-3.585,4.237-6.387,5.3-7.739,5.548a.59.59,0,0,0-.206.083c-.012,0-.02,0-.032,0a2.837,2.837,0,0,0-.539.055,11.505,11.505,0,0,1-.621-3.526Zm-.508,6.347a1.676,1.676,0,0,1,1.42-1.658V23.1A1.676,1.676,0,0,1,18.481,21.437Zm2.611,2.653V19.545c1.745-.45,4.293-1.743,7.359-5.171a1.21,1.21,0,0,1,.012.209,2.371,2.371,0,0,1-.958,1.579.6.6,0,0,0,.488,1.036c.244-.039,5.427-.908,8.027-4.283a10.891,10.891,0,0,0,3.5,5.448v5.443a9.407,9.407,0,0,1-8.764,9.571,9.242,9.242,0,0,1-9.661-9.288ZM30.81,34.568A10.053,10.053,0,0,0,35.6,33.1c-.025,2.708-2.743,5.724-5.292,7.328-2.513-1.58-5.264-4.593-5.29-7.306a10.227,10.227,0,0,0,5.792,1.448ZM9.555,46.734a11.248,11.248,0,0,1,5.194-7.385,46.882,46.882,0,0,1,7.626-3.613,4.967,4.967,0,0,0-.518,1.336c-.465,2.023.232,4.422,2.072,7.133a.6.6,0,0,0,1.034-.086c.922-2.1,2.93-3.534,5.063-2.472.312.155.658-.048.867-.133,2.062-.833,3.94.739,4.76,2.607a.6.6,0,0,0,1.033.084c1.739-2.561,3.066-5.782,1.55-8.469a47.261,47.261,0,0,1,7.625,3.615,11.232,11.232,0,0,1,5.191,7.377c-14.041,9.185-28,9.188-41.5.007Z" transform="translate(-8.305 -4.017)" fill="#333232"/>
      <path id="Path_1351" data-name="Path 1351" d="M36.85,30.831a.6.6,0,1,0-.842-.842.529.529,0,0,1-.731,0,.6.6,0,1,0-.842.842,1.706,1.706,0,0,0,2.416,0Z" transform="translate(-13.642 -9.322)" fill="#333232"/>
      <path id="Path_1352" data-name="Path 1352" d="M28.7,25.426a1.057,1.057,0,0,1,1.777,0,.6.6,0,0,0,1.035-.59,2.213,2.213,0,0,0-3.847,0,.6.6,0,0,0,1.035.59Z" transform="translate(-12.27 -8.068)" fill="#333232"/>
      <path id="Path_1353" data-name="Path 1353" d="M39.671,25.648a.6.6,0,0,0,.812-.223,1.056,1.056,0,0,1,1.776,0,.6.6,0,1,0,1.035-.59,2.212,2.212,0,0,0-3.846,0A.6.6,0,0,0,39.671,25.648Z" transform="translate(-14.693 -8.068)" fill="#333232"/>
      <path id="Path_1354" data-name="Path 1354" d="M30.791,32.061a.628.628,0,0,0-.285.527,4.364,4.364,0,1,0,8.728-.036.6.6,0,0,0-.869-.529,7.173,7.173,0,0,1-6.99,0A.6.6,0,0,0,30.791,32.061ZM37.9,33.537a3.173,3.173,0,0,1-6.055,0A8.175,8.175,0,0,0,37.9,33.537Z" transform="translate(-12.87 -9.762)" fill="#333232"/>
    </g>
  </g>
</svg>
