<svg xmlns="http://www.w3.org/2000/svg" width="37.377" height="21.948" viewBox="0 0 37.377 21.948">
  <g id="Group_2991" data-name="Group 2991" transform="translate(-662.499 -622.639)">
    <path id="Icon_feather-moon" data-name="Icon feather-moon" d="M16.279,10.889A5.873,5.873,0,1,1,9.89,4.5a4.568,4.568,0,0,0,6.389,6.389Z" transform="translate(658.442 618.639)" fill="none" stroke="#000" stroke-linecap="round" stroke-linejoin="round" stroke-width="1"/>
    <path id="Icon_awesome-bed" data-name="Icon awesome-bed" d="M6.291,11.363A2.859,2.859,0,1,0,3.431,8.5,2.863,2.863,0,0,0,6.291,11.363ZM18.873,6.788H10.866a.572.572,0,0,0-.572.572v5.147H2.288V5.072A.572.572,0,0,0,1.716,4.5H.572A.572.572,0,0,0,0,5.072V17.654a.572.572,0,0,0,.572.572H1.716a.572.572,0,0,0,.572-.572V15.938h18.3v1.716a.572.572,0,0,0,.572.572H22.3a.572.572,0,0,0,.572-.572V10.791A4,4,0,0,0,18.873,6.788Z" transform="translate(677 626.361)"/>
  </g>
</svg>
