<svg xmlns="http://www.w3.org/2000/svg" width="23.025" height="15.47" viewBox="0 0 23.025 15.47">
  <g id="bed" transform="translate(0 -84)">
    <g id="Group_354" data-name="Group 354" transform="translate(0 84)">
      <path id="Path_1434" data-name="Path 1434" d="M19.787,88.677h-.36V85.8a1.8,1.8,0,0,0-1.8-1.8H5.4a1.8,1.8,0,0,0-1.8,1.8v2.878h-.36A3.242,3.242,0,0,0,0,91.915v5.037H.72V99.47h1.8V96.951H20.506V99.47h1.8V96.951h.72V91.915A3.242,3.242,0,0,0,19.787,88.677ZM4.317,85.8A1.079,1.079,0,0,1,5.4,84.72H17.628A1.079,1.079,0,0,1,18.708,85.8v2.878H17.628V87.238a1.079,1.079,0,0,0-1.079-1.079H13.311a1.079,1.079,0,0,0-1.079,1.079v1.439H10.793V87.238a1.079,1.079,0,0,0-1.079-1.079H6.476A1.079,1.079,0,0,0,5.4,87.238v1.439H4.317Zm12.592,1.439v1.439H12.951V87.238a.36.36,0,0,1,.36-.36h3.238A.36.36,0,0,1,16.909,87.238Zm-6.835,0v1.439H6.116V87.238a.36.36,0,0,1,.36-.36H9.714A.36.36,0,0,1,10.073,87.238ZM1.8,98.75h-.36v-1.8H1.8Zm19.787,0h-.36v-1.8h.36Zm.72-2.518H.72v-1.8H22.305Zm0-2.518H.72v-1.8A2.521,2.521,0,0,1,3.238,89.4H19.787a2.521,2.521,0,0,1,2.518,2.518Z" transform="translate(0 -84)" fill="#646464"/>
    </g>
  </g>
</svg>
