<svg xmlns="http://www.w3.org/2000/svg" width="32.948" height="32.641" viewBox="0 0 32.948 32.641">
  <g id="bedroom" transform="translate(0 -0.595)">
    <path id="Path_1391" data-name="Path 1391" d="M29.344,30.372V22.515A.515.515,0,0,0,28.829,22H4.118a.515.515,0,0,0-.515.515v7.858A4.707,4.707,0,0,0,0,34.941v6.107a.515.515,0,0,0,.515.515h1.03v1.544a.515.515,0,0,0,.515.515H30.889a.515.515,0,0,0,.515-.515V41.563h1.03a.515.515,0,0,0,.515-.515V34.941a4.707,4.707,0,0,0-3.6-4.568ZM4.633,30.237V23.03H28.314v7.207h-1.03V29.093a1.948,1.948,0,0,0-1.945-1.945H19.448A1.948,1.948,0,0,0,17.5,29.093v1.144H15.444V29.093A1.948,1.948,0,0,0,13.5,27.148H7.608a1.948,1.948,0,0,0-1.945,1.945v1.144Zm21.622,0H18.533V29.093a.917.917,0,0,1,.915-.915H25.34a.917.917,0,0,1,.915.915Zm-11.841,0H6.693V29.093a.917.917,0,0,1,.915-.915H13.5a.917.917,0,0,1,.915.915ZM1.03,34.941A3.678,3.678,0,0,1,4.7,31.267H28.244a3.678,3.678,0,0,1,3.674,3.674v4.048H1.03Zm29.344,7.652H2.574v-1.03h27.8Zm1.544-2.059H1.03v-.515H31.918Z" transform="translate(0 -10.385)" fill="#646464"/>
    <path id="Path_1392" data-name="Path 1392" d="M2.287,6.884,1.786,9.8a.515.515,0,0,0,.748.542L5.153,8.965l2.619,1.377A.515.515,0,0,0,8.52,9.8l-.5-2.917,2.119-2.064a.515.515,0,0,0-.286-.875L6.924,3.518,5.616.859a.536.536,0,0,0-.924,0L3.382,3.514.453,3.939a.515.515,0,0,0-.286.88ZM3.8,4.493a.515.515,0,0,0,.388-.282l.968-1.961.968,1.961a.515.515,0,0,0,.388.282l2.162.315L7.109,6.335a.515.515,0,0,0-.148.456l.37,2.156L5.392,7.929a.515.515,0,0,0-.479,0L2.977,8.946l.37-2.156A.515.515,0,0,0,3.2,6.335L1.633,4.808Z" transform="translate(-0.005 0)" fill="#b31f24"/>
    <path id="Path_1393" data-name="Path 1393" d="M46.29,6.884,45.79,9.8a.515.515,0,0,0,.747.542l2.619-1.377,2.619,1.377a.515.515,0,0,0,.748-.542l-.5-2.917,2.119-2.064a.515.515,0,0,0-.286-.875l-2.929-.426L49.62.859a.536.536,0,0,0-.924,0L47.385,3.514l-2.929.426a.515.515,0,0,0-.286.875ZM47.8,4.493a.515.515,0,0,0,.388-.282l.968-1.961.968,1.961a.515.515,0,0,0,.388.282l2.162.315L51.113,6.335a.515.515,0,0,0-.148.456l.37,2.156L49.4,7.929a.515.515,0,0,0-.479,0L46.981,8.946l.37-2.156a.515.515,0,0,0-.148-.456L45.637,4.808Z" transform="translate(-21.357 0)" fill="#b31f24"/>
    <path id="Path_1394" data-name="Path 1394" d="M24.29,6.884,23.79,9.8a.515.515,0,0,0,.748.542l2.619-1.377,2.619,1.377a.515.515,0,0,0,.747-.542l-.5-2.917,2.119-2.064a.515.515,0,0,0-.286-.875l-2.929-.426L27.62.859a.536.536,0,0,0-.924,0L25.385,3.514l-2.929.426a.515.515,0,0,0-.286.875ZM25.8,4.493a.515.515,0,0,0,.388-.282l.968-1.961.968,1.961a.515.515,0,0,0,.388.282l2.162.315L29.113,6.335a.515.515,0,0,0-.148.456l.37,2.156L27.4,7.929a.515.515,0,0,0-.479,0L24.981,8.946l.37-2.156a.515.515,0,0,0-.148-.456L23.637,4.808Z" transform="translate(-10.683)" fill="#b31f24"/>
  </g>
</svg>
