<svg id="calendar" xmlns="http://www.w3.org/2000/svg" width="19" height="19" viewBox="0 0 19 19">
  <g id="Group_103" data-name="Group 103">
    <g id="Group_102" data-name="Group 102">
      <ellipse id="Ellipse_75" data-name="Ellipse 75" cx="0.864" cy="0.576" rx="0.864" ry="0.576" transform="translate(13.53 7.197)" fill="#ffc619"/>
      <path id="Path_547" data-name="Path 547" d="M16.031,1.484h-.965V.742a.742.742,0,0,0-1.484,0v.742H10.205V.742a.742.742,0,0,0-1.484,0v.742H5.381V.742A.742.742,0,0,0,3.9.742v.742H2.969A2.972,2.972,0,0,0,0,4.453V16.031A2.972,2.972,0,0,0,2.969,19H8.646a.742.742,0,0,0,0-1.484H2.969a1.486,1.486,0,0,1-1.484-1.484V4.453A1.486,1.486,0,0,1,2.969,2.969H3.9v.742a.742.742,0,0,0,1.484,0V2.969h3.34v.742a.742.742,0,0,0,1.484,0V2.969h3.377v.742a.742.742,0,0,0,1.484,0V2.969h.965a1.486,1.486,0,0,1,1.484,1.484v4.23a.742.742,0,0,0,1.484,0V4.453A2.972,2.972,0,0,0,16.031,1.484Z" fill="#646464"/>
      <path id="Path_548" data-name="Path 548" d="M274.49,270a4.49,4.49,0,1,0,4.49,4.49A4.5,4.5,0,0,0,274.49,270Zm0,7.5a3.006,3.006,0,1,1,3.006-3.006A3.009,3.009,0,0,1,274.49,277.5Z" transform="translate(-259.98 -259.98)" fill="#b31f24"/>
      <path id="Path_549" data-name="Path 549" d="M372.818,331.521h-.334v-.779a.742.742,0,0,0-1.484,0v1.521a.742.742,0,0,0,.742.742h1.076a.742.742,0,0,0,0-1.484Z" transform="translate(-357.232 -317.754)" fill="#b31f24"/>
      <ellipse id="Ellipse_76" data-name="Ellipse 76" cx="0.864" cy="0.576" rx="0.864" ry="0.576" transform="translate(10.076 7.197)" fill="#646464"/>
      <ellipse id="Ellipse_77" data-name="Ellipse 77" cx="0.576" cy="0.864" rx="0.576" ry="0.864" transform="translate(7.197 10.076)" fill="#646464"/>
      <ellipse id="Ellipse_78" data-name="Ellipse 78" cx="0.864" cy="0.576" rx="0.864" ry="0.576" transform="translate(3.742 7.197)" fill="#ffc619"/>
      <circle id="Ellipse_79" data-name="Ellipse 79" cx="0.864" cy="0.864" r="0.864" transform="translate(3.742 10.076)" fill="#646464"/>
      <circle id="Ellipse_80" data-name="Ellipse 80" cx="0.864" cy="0.864" r="0.864" transform="translate(3.742 13.53)" fill="#646464"/>
      <ellipse id="Ellipse_81" data-name="Ellipse 81" cx="0.576" cy="0.864" rx="0.576" ry="0.864" transform="translate(7.197 13.53)" fill="#646464"/>
      <circle id="Ellipse_82" data-name="Ellipse 82" cx="0.576" cy="0.576" r="0.576" transform="translate(7.197 7.197)" fill="#646464"/>
    </g>
  </g>
</svg>
