<svg width="26" height="27" viewBox="0 0 26 27" fill="none" xmlns="http://www.w3.org/2000/svg">
<path d="M9.72791 17.2656C8.70287 17.2669 7.70906 16.9129 6.91573 16.2638C6.1224 15.6147 5.57859 14.7106 5.37691 13.7056C5.34964 13.5116 5.3996 13.3146 5.51604 13.157C5.63248 12.9994 5.80612 12.8938 5.99961 12.8629C6.1931 12.832 6.391 12.8782 6.55076 12.9917C6.71051 13.1051 6.81936 13.2768 6.85391 13.4696C6.99323 14.1335 7.35671 14.7292 7.88331 15.1568C8.40992 15.5843 9.06759 15.8177 9.74591 15.8177C10.4242 15.8177 11.0819 15.5843 11.6085 15.1568C12.1351 14.7292 12.4986 14.1335 12.6379 13.4696C12.6725 13.2768 12.7813 13.1051 12.9411 12.9917C13.1008 12.8782 13.2987 12.832 13.4922 12.8629C13.6857 12.8938 13.8593 12.9994 13.9758 13.157C14.0922 13.3146 14.1422 13.5116 14.1149 13.7056C13.9121 14.7167 13.363 15.6255 12.5622 16.2753C11.7614 16.9251 10.7591 17.2753 9.72791 17.2656Z" fill="black"/>
<path d="M16.3018 27.0013H3.15382C2.85331 27.0016 2.5559 26.9407 2.27966 26.8224C2.00342 26.7041 1.75412 26.5308 1.54694 26.3132C1.33975 26.0955 1.179 25.838 1.07445 25.5562C0.969913 25.2745 0.923765 24.9744 0.938817 24.6743L1.53882 11.9403C1.56355 11.3699 1.80749 10.8311 2.21977 10.4361C2.63206 10.0411 3.18088 9.82055 3.75182 9.82031H15.7038C16.2753 9.81978 16.8249 10.04 17.2378 10.4351C17.6507 10.8301 17.8951 11.3694 17.9198 11.9403L18.5198 24.6743C18.5349 24.9745 18.4887 25.2747 18.3841 25.5565C18.2795 25.8383 18.1186 26.0958 17.9114 26.3135C17.7041 26.5312 17.4546 26.7044 17.1783 26.8227C16.9019 26.9409 16.6044 27.0017 16.3038 27.0013H16.3018ZM3.75182 11.3053C3.55582 11.3053 3.36785 11.3832 3.22927 11.5218C3.09068 11.6604 3.01282 11.8483 3.01282 12.0443L2.41282 24.7443C2.4078 24.8444 2.4232 24.9445 2.45808 25.0385C2.49297 25.1325 2.54661 25.2184 2.61574 25.291C2.68486 25.3635 2.76804 25.4213 2.8602 25.4607C2.95236 25.5002 3.05158 25.5204 3.15182 25.5203H16.3018C16.4021 25.5204 16.5013 25.5002 16.5934 25.4607C16.6856 25.4213 16.7688 25.3635 16.8379 25.291C16.907 25.2184 16.9607 25.1325 16.9956 25.0385C17.0304 24.9445 17.0458 24.8444 17.0408 24.7443L16.4388 12.0143C16.4388 11.9173 16.4197 11.8212 16.3826 11.7315C16.3454 11.6419 16.291 11.5604 16.2224 11.4918C16.1537 11.4231 16.0723 11.3687 15.9826 11.3316C15.893 11.2944 15.7969 11.2753 15.6998 11.2753L3.75182 11.3053Z" fill="black"/>
<path d="M14.1599 10.5668H12.6829V9.2738C12.6687 8.49963 12.3511 7.76198 11.7986 7.21952C11.2461 6.67707 10.5027 6.37315 9.7284 6.37315C8.9541 6.37315 8.21073 6.67707 7.65821 7.21952C7.10568 7.76198 6.78814 8.49963 6.7739 9.2738V10.5668H5.2959V9.2738C5.2959 8.09836 5.76284 6.97106 6.594 6.1399C7.42516 5.30874 8.55246 4.8418 9.7279 4.8418C10.9033 4.8418 12.0306 5.30874 12.8618 6.1399C13.693 6.97106 14.1599 8.09836 14.1599 9.2738V10.5668Z" fill="black"/>
<path d="M18.438 15.9219C22.5801 15.9219 25.938 12.564 25.938 8.42188C25.938 4.27974 22.5801 0.921875 18.438 0.921875C14.2959 0.921875 10.938 4.27974 10.938 8.42188C10.938 12.564 14.2959 15.9219 18.438 15.9219Z" fill="#B31F24"/>
<path d="M18.438 15.4219C22.304 15.4219 25.438 12.2879 25.438 8.42188C25.438 4.55588 22.304 1.42188 18.438 1.42188C14.572 1.42188 11.438 4.55588 11.438 8.42188C11.438 12.2879 14.572 15.4219 18.438 15.4219Z" stroke="#F2F2F2"/>
<path d="M16.41 6.74587C16.45 6.47387 16.5247 6.23521 16.634 6.02987C16.746 5.82454 16.886 5.65387 17.054 5.51787C17.222 5.37921 17.414 5.27521 17.63 5.20587C17.8487 5.13387 18.0847 5.09787 18.338 5.09787C18.594 5.09787 18.826 5.13521 19.034 5.20987C19.2447 5.28187 19.4247 5.38321 19.574 5.51387C19.726 5.64454 19.842 5.80054 19.922 5.98187C20.0047 6.16321 20.046 6.36187 20.046 6.57787C20.046 6.76187 20.0233 6.92454 19.978 7.06587C19.9353 7.20454 19.8727 7.32721 19.79 7.43387C19.71 7.54054 19.6113 7.62987 19.494 7.70187C19.3767 7.77387 19.2447 7.83387 19.098 7.88187C19.4553 7.98587 19.7233 8.15254 19.902 8.38187C20.0807 8.60854 20.17 8.89387 20.17 9.23787C20.17 9.51521 20.118 9.76187 20.014 9.97787C19.91 10.1939 19.7687 10.3765 19.59 10.5259C19.414 10.6752 19.2073 10.7899 18.97 10.8699C18.7353 10.9472 18.486 10.9859 18.222 10.9859C17.926 10.9859 17.67 10.9512 17.454 10.8819C17.238 10.8099 17.0513 10.7085 16.894 10.5779C16.7393 10.4445 16.61 10.2845 16.506 10.0979C16.402 9.91121 16.314 9.70187 16.242 9.46987L16.614 9.31387C16.7127 9.27121 16.806 9.25921 16.894 9.27787C16.9847 9.29654 17.05 9.34587 17.09 9.42587C17.1327 9.51121 17.1807 9.60321 17.234 9.70187C17.2873 9.79787 17.3553 9.88721 17.438 9.96987C17.5233 10.0499 17.6273 10.1179 17.75 10.1739C17.8753 10.2272 18.0287 10.2539 18.21 10.2539C18.394 10.2539 18.554 10.2245 18.69 10.1659C18.8287 10.1045 18.9433 10.0272 19.034 9.93387C19.1273 9.83787 19.1967 9.73121 19.242 9.61387C19.2873 9.49654 19.31 9.38054 19.31 9.26587C19.31 9.12187 19.2927 8.98987 19.258 8.86987C19.2233 8.74721 19.1553 8.64321 19.054 8.55787C18.9553 8.47254 18.814 8.40587 18.63 8.35787C18.4487 8.30721 18.21 8.28187 17.914 8.28187V7.66187C18.1567 7.65921 18.3607 7.63521 18.526 7.58987C18.694 7.54187 18.8273 7.47787 18.926 7.39787C19.0273 7.31521 19.0993 7.21654 19.142 7.10187C19.1873 6.98721 19.21 6.86187 19.21 6.72587C19.21 6.57921 19.1873 6.44987 19.142 6.33787C19.0967 6.22587 19.0327 6.13254 18.95 6.05787C18.87 5.98054 18.774 5.92321 18.662 5.88587C18.55 5.84854 18.426 5.82987 18.29 5.82987C18.1593 5.82987 18.038 5.84854 17.926 5.88587C17.8167 5.92321 17.718 5.97521 17.63 6.04187C17.5447 6.10854 17.4727 6.18854 17.414 6.28187C17.3553 6.37254 17.3127 6.47254 17.286 6.58187C17.2487 6.69121 17.198 6.76454 17.134 6.80187C17.0727 6.83921 16.982 6.84721 16.862 6.82587L16.41 6.74587Z" fill="white"/>
</svg>
