<svg xmlns="http://www.w3.org/2000/svg" width="30.695" height="44.939" viewBox="0 0 30.695 44.939">
  <g id="child" transform="translate(-74.681 0.515)">
    <path id="Path_1355" data-name="Path 1355" d="M104.856,41.37,103.9,33.7a3.029,3.029,0,0,0-2.048-2.5l-3.7-1.232a1.515,1.515,0,0,0-1.456.272l-1.089-.363a1.515,1.515,0,0,1-1.036-1.437V26l3.262-1.359a4.543,4.543,0,0,0,2.8-4.194V19.69a2.271,2.271,0,0,0,1.722-3.753C103,13.6,104.8,6.2,102.9,3.029L103.66,0S95.709.189,91.543,1.515L93.058,0S82.408,0,80.184,3.786h0S76.4,3.755,76.4,8.33A50.98,50.98,0,0,0,77.732,15.9a2.272,2.272,0,0,0,1.694,3.785v.757a4.544,4.544,0,0,0,2.8,4.194L85.485,26v2.442a1.515,1.515,0,0,1-1.036,1.437l-1.089.363a1.515,1.515,0,0,0-1.456-.272l-3.7,1.232a3.029,3.029,0,0,0-2.048,2.5L75.2,41.37a2.272,2.272,0,0,0,2.254,2.554H102.6A2.272,2.272,0,0,0,104.856,41.37Z" fill="#fff" stroke="#333232" stroke-width="1"/>
    <path id="Union_6" data-name="Union 6" d="M-4617.229-123.378s-1.515-6.2-1.515-8.331v-.053a6.533,6.533,0,0,1,.149-1.4h0a3.719,3.719,0,0,1,2.177-2.759l.028-.012.12-.049.049-.019.08-.029h0l.078-.026h0l.051-.016.028-.009.1-.028h0l.091-.024.07-.017.021,0,.135-.029h0c.055-.011.107-.02.156-.027h0l.072-.011.075-.01h0l.029,0,.048,0,.06-.005c.09-.007.146-.007.157-.007h0c2.225-3.786,12.874-3.786,12.874-3.786l-1.514,1.514c4.165-1.325,12.117-1.514,12.117-1.514l-.757,3.029c2.271,3.787-.758,13.632-.758,13.632Z" transform="translate(4695.141 140.039)" fill="#fff" stroke="#333232" stroke-width="1"/>
    <path id="Path_1359" data-name="Path 1359" d="M119.476,109.3v-1.515A3.787,3.787,0,0,0,115.69,104H102.058a3.787,3.787,0,0,0-3.787,3.787V109.3a2.272,2.272,0,0,0,0,4.544v.757a4.544,4.544,0,0,0,2.8,4.194l4.893,2.039a7.572,7.572,0,0,0,2.913.583h0a7.574,7.574,0,0,0,2.913-.583l4.894-2.039a4.544,4.544,0,0,0,2.8-4.194v-.757a2.272,2.272,0,0,0,0-4.544Z" transform="translate(-18.845 -94.155)" fill="#fff" stroke="#333232" stroke-width="1"/>
    <g id="Group_262" data-name="Group 262" transform="translate(83.97 15.903)">
      <path id="Path_1360" data-name="Path 1360" d="M168.757,170.272h0a.76.76,0,0,1-.757-.757v-.757a.76.76,0,0,1,.757-.757h0a.76.76,0,0,1,.757.757v.757A.76.76,0,0,1,168.757,170.272Z" transform="translate(-168 -168)" fill="#333232"/>
    </g>
    <g id="Group_263" data-name="Group 263" transform="translate(94.573 15.903)">
      <path id="Path_1361" data-name="Path 1361" d="M280.757,170.272h0a.76.76,0,0,1-.757-.757v-.757a.76.76,0,0,1,.757-.757h0a.76.76,0,0,1,.757.757v.757A.76.76,0,0,1,280.757,170.272Z" transform="translate(-280 -168)" fill="#333232"/>
    </g>
    <g id="Group_265" data-name="Group 265" transform="translate(86.242 21.204)">
      <g id="Group_264" data-name="Group 264" transform="translate(0)">
        <path id="Path_1362" data-name="Path 1362" d="M195.785,226.291a6.308,6.308,0,0,1-3.455-.909.757.757,0,1,1,.852-1.252,5.563,5.563,0,0,0,5.206,0,.757.757,0,1,1,.852,1.252A6.307,6.307,0,0,1,195.785,226.291Z" transform="translate(-191.999 -223.998)" fill="#333232"/>
      </g>
    </g>
    <g id="Group_266" data-name="Group 266" transform="translate(75.184 29.892)">
      <path id="Path_1363" data-name="Path 1363" d="M104.856,327.248l-.959-7.669a3.029,3.029,0,0,0-2.048-2.5l-3.7-1.232a1.49,1.49,0,0,0-1.731.588,7.565,7.565,0,0,1-12.785,0,1.49,1.49,0,0,0-1.731-.588l-3.7,1.232a3.029,3.029,0,0,0-2.048,2.5l-.959,7.669a2.272,2.272,0,0,0,2.254,2.554H102.6A2.272,2.272,0,0,0,104.856,327.248Z" transform="translate(-75.184 -315.769)" fill="#b31f24"/>
    </g>
    <g id="Group_267" data-name="Group 267" transform="translate(75.184 32.201)">
      <path id="Path_1364" data-name="Path 1364" d="M76.792,340.168a3.023,3.023,0,0,0-.631,1.5l-.959,7.669a2.272,2.272,0,0,0,2.254,2.554H81.7v-4.929a3.03,3.03,0,0,0-.74-1.983Z" transform="translate(-75.184 -340.168)" fill="#ffc619"/>
    </g>
    <g id="Group_268" data-name="Group 268" transform="translate(98.359 32.201)">
      <path id="Path_1365" data-name="Path 1365" d="M324.907,340.168a3.023,3.023,0,0,1,.631,1.5l.959,7.669a2.272,2.272,0,0,1-2.254,2.554H320v-4.929a3.03,3.03,0,0,1,.74-1.983Z" transform="translate(-320 -340.168)" fill="#ffc619"/>
    </g>
  </g>
</svg>
