<svg width="21" height="21" viewBox="0 0 21 21" fill="none" xmlns="http://www.w3.org/2000/svg">
<path d="M20.7578 9.32493C20.7578 9.32493 12.2378 0.742929 12.2258 0.734929C11.7775 0.331695 11.1963 0.107929 10.5933 0.106453C9.99037 0.104977 9.40804 0.325895 8.95779 0.726929L0.346791 9.32093C0.262208 9.39461 0.193701 9.48491 0.145541 9.58622C0.0973803 9.68752 0.0705971 9.79766 0.0668599 9.90977C0.0631226 10.0219 0.0825114 10.1336 0.123818 10.2378C0.165125 10.3421 0.227465 10.4368 0.306955 10.516C0.386444 10.5951 0.48138 10.657 0.585847 10.6979C0.690315 10.7387 0.802076 10.7576 0.914169 10.7534C1.02626 10.7492 1.13628 10.7219 1.23738 10.6733C1.33848 10.6247 1.42848 10.5558 1.50179 10.4709L1.74279 10.2299V17.7299C1.74385 18.5955 2.08818 19.4254 2.70026 20.0375C3.31233 20.6495 4.14218 20.9939 5.00779 20.9949H8.35779C8.57397 20.9941 8.78106 20.9079 8.93392 20.7551C9.08678 20.6022 9.173 20.3951 9.17379 20.1789V14.7159C9.17379 14.3371 9.32429 13.9737 9.59219 13.7058C9.86009 13.4379 10.2234 13.2874 10.6023 13.2874C10.9812 13.2874 11.3445 13.4379 11.6124 13.7058C11.8803 13.9737 12.0308 14.3371 12.0308 14.7159V20.1839C12.0316 20.4001 12.1178 20.6072 12.2707 20.7601C12.4235 20.9129 12.6306 20.9991 12.8468 20.9999H16.1118C16.9774 20.9989 17.8072 20.6545 18.4193 20.0425C19.0314 19.4304 19.3757 18.6005 19.3768 17.7349C19.3768 17.5185 19.2908 17.311 19.1378 17.1579C18.9848 17.0049 18.7772 16.9189 18.5608 16.9189C18.3444 16.9189 18.1368 17.0049 17.9838 17.1579C17.8308 17.311 17.7448 17.5185 17.7448 17.7349C17.7453 17.9501 17.7033 18.1632 17.6211 18.3621C17.539 18.5609 17.4183 18.7416 17.2661 18.8936C17.1139 19.0457 16.9331 19.1661 16.7341 19.248C16.5351 19.33 16.3219 19.3717 16.1068 19.3709H13.6578V14.7159C13.6433 13.9138 13.3145 13.1495 12.7421 12.5873C12.1697 12.0252 11.3995 11.7103 10.5973 11.7103C9.79505 11.7103 9.02486 12.0252 8.45249 12.5873C7.88011 13.1495 7.55129 13.9138 7.53679 14.7159V19.3709H5.00679C4.57412 19.3704 4.15932 19.1983 3.85338 18.8923C3.54743 18.5864 3.37532 18.1716 3.37479 17.7389V8.61093L10.0628 1.93493C10.2103 1.80952 10.3977 1.74066 10.5913 1.74066C10.7849 1.74066 10.9723 1.80952 11.1198 1.93493L17.7388 8.59893C17.7388 8.62293 17.7388 13.6549 17.7388 13.6549C17.7388 13.8713 17.8248 14.0789 17.9778 14.2319C18.1308 14.385 18.3384 14.4709 18.5548 14.4709C18.7712 14.4709 18.9788 14.385 19.1318 14.2319C19.2848 14.0789 19.3708 13.8713 19.3708 13.6549V10.2349L19.6078 10.4719C19.7637 10.6039 19.9635 10.6726 20.1676 10.6642C20.3717 10.6559 20.5653 10.5712 20.7099 10.4269C20.8546 10.2827 20.9398 10.0894 20.9486 9.88527C20.9575 9.68117 20.8894 9.48119 20.7578 9.32493Z" fill="#B31F24"/>
<path d="M13.4498 8.83846C13.449 9.05463 13.3628 9.26172 13.21 9.41458C13.0571 9.56744 12.85 9.65367 12.6338 9.65446H8.59383C8.37741 9.65446 8.16986 9.5685 8.01683 9.41547C7.8638 9.26244 7.77783 9.05487 7.77783 8.83846C7.77783 8.62204 7.8638 8.41449 8.01683 8.26146C8.16986 8.10843 8.37741 8.02246 8.59383 8.02246H12.6338C12.85 8.02325 13.0571 8.10947 13.21 8.26233C13.3628 8.41519 13.449 8.62228 13.4498 8.83846Z" fill="#B31F24"/>
</svg>
