<svg width="138" height="26" viewBox="0 0 138 26" fill="none" xmlns="http://www.w3.org/2000/svg">
<path d="M129.992 0.400391L113.168 6.31839H137.699L129.992 0.400391Z" fill="#6F0205"/>
<path d="M7.68722 0.394531L24.8342 6.53253H0.303223L7.68722 0.394531Z" fill="#6F0205"/>
<path d="M68.7968 25.6094L7.58684 0.390375L130.007 0.390375L68.7968 25.6094Z" fill="#B31F24"/>
<path d="M74.5963 6.76649L68.9963 12.3665L63.3963 6.76649C63.347 6.71716 63.2801 6.68945 63.2103 6.68945C63.1405 6.68945 63.0736 6.71716 63.0243 6.76649C62.975 6.81583 62.9473 6.88274 62.9473 6.9525C62.9473 7.02226 62.975 7.08917 63.0243 7.1385L68.8093 12.9215C68.8337 12.9459 68.8627 12.9653 68.8946 12.9785C68.9266 12.9918 68.9608 12.9986 68.9953 12.9986C69.0299 12.9986 69.0641 12.9918 69.096 12.9785C69.1279 12.9653 69.1569 12.9459 69.1813 12.9215L74.9663 7.1385C75.0128 7.08932 75.0386 7.0241 75.0382 6.95641C75.0379 6.88872 75.0115 6.82377 74.9644 6.77508C74.9174 6.72638 74.8534 6.69769 74.7858 6.69498C74.7182 6.69226 74.6521 6.71573 74.6013 6.7605L74.5953 6.76649H74.5963Z" fill="white" stroke="white"/>
<path d="M68.9973 12.9988C68.9627 12.9988 68.9285 12.992 68.8966 12.9788C68.8647 12.9656 68.8357 12.9462 68.8113 12.9218L63.0253 7.1388C62.976 7.08947 62.9482 7.02257 62.9482 6.9528C62.9482 6.88304 62.976 6.81613 63.0253 6.7668C63.0746 6.71747 63.1415 6.68976 63.2113 6.68976C63.281 6.68976 63.348 6.71747 63.3973 6.7668L68.9973 12.3668L74.5973 6.7668C74.6208 6.74014 74.6495 6.71852 74.6815 6.70325C74.7136 6.68798 74.7485 6.67937 74.784 6.67795C74.8195 6.67652 74.8549 6.68231 74.8882 6.69496C74.9214 6.70761 74.9517 6.72685 74.9772 6.75154C75.0028 6.77623 75.0231 6.80584 75.0369 6.83859C75.0507 6.87134 75.0577 6.90655 75.0576 6.94209C75.0574 6.97763 75.05 7.01276 75.0358 7.04537C75.0217 7.07798 75.0011 7.10738 74.9753 7.1318L74.9693 7.1378L69.1843 12.9208C69.1598 12.9455 69.1307 12.9651 69.0986 12.9785C69.0665 12.9919 69.0321 12.9988 68.9973 12.9988Z" fill="white" stroke="white"/>
</svg>
