<svg width="14" height="11" viewBox="0 0 14 11" fill="none" xmlns="http://www.w3.org/2000/svg">
<path d="M13.4291 3.69465C13.4513 3.67756 13.4779 3.667 13.5058 3.66416C13.5337 3.66131 13.5618 3.6663 13.5871 3.67855C13.6123 3.6908 13.6336 3.70983 13.6486 3.73352C13.6637 3.7572 13.6718 3.7846 13.6721 3.81265V8.94065C13.6721 9.25891 13.5457 9.56413 13.3206 9.78918C13.0956 10.0142 12.7904 10.1406 12.4721 10.1406H2.0291C1.71084 10.1406 1.40562 10.0142 1.18057 9.78918C0.95553 9.56413 0.829102 9.25891 0.829102 8.94065V3.81465C0.829044 3.78644 0.836939 3.75879 0.851881 3.73487C0.866823 3.71095 0.888207 3.69173 0.913579 3.67941C0.938951 3.66709 0.967282 3.66217 0.995322 3.66522C1.02336 3.66827 1.04997 3.67916 1.0721 3.69665C1.6341 4.13265 2.3791 4.68765 4.9361 6.54565C5.57215 7.1635 6.37704 7.579 7.2491 7.73965C8.12184 7.57926 8.92744 7.16375 9.5641 6.54565C12.1211 4.68765 12.8631 4.13065 13.4291 3.69465ZM7.2491 6.93465C7.8311 6.94465 8.6681 6.20265 9.0901 5.89665C12.4181 3.48165 12.6711 3.27065 13.4381 2.66965C13.5102 2.61345 13.5684 2.54153 13.6085 2.45938C13.6485 2.37724 13.6692 2.28703 13.6691 2.19565V1.71465C13.6691 1.39639 13.5427 1.09116 13.3176 0.86612C13.0926 0.641077 12.7874 0.514648 12.4691 0.514648H2.0291C1.71084 0.514648 1.40562 0.641077 1.18057 0.86612C0.95553 1.09116 0.829102 1.39639 0.829102 1.71465V2.19465C0.828968 2.28603 0.849708 2.37624 0.889742 2.45838C0.929776 2.54053 0.988044 2.61245 1.0601 2.66865C1.8271 3.26865 2.0811 3.48065 5.4081 5.89565C5.8291 6.20165 6.6671 6.94465 7.2491 6.93465Z" fill="white"/>
</svg>
