<svg xmlns="http://www.w3.org/2000/svg" width="20.07" height="20.729" viewBox="0 0 20.07 20.729">
  <g id="food" transform="translate(-6.828 -0.001)">
    <g id="Group_356" data-name="Group 356" transform="translate(16.041 5.923)">
      <g id="Group_355" data-name="Group 355" transform="translate(0)">
        <path id="Path_1435" data-name="Path 1435" d="M208.08,122.984a.329.329,0,0,0-.238-.1H198.3a.329.329,0,0,0-.329.344l.238,5.11a.329.329,0,1,0,.657-.031l-.222-4.766H207.5l-.628,13.49h-7.389a.329.329,0,1,0,0,.658h7.7a.329.329,0,0,0,.329-.314l.658-14.148A.329.329,0,0,0,208.08,122.984Z" transform="translate(-197.972 -122.882)" fill="#646464"/>
      </g>
    </g>
    <g id="Group_358" data-name="Group 358" transform="translate(7.815 18.097)">
      <g id="Group_357" data-name="Group 357" transform="translate(0)">
        <path id="Path_1436" data-name="Path 1436" d="M39.482,375.469H27.637a.329.329,0,0,0-.329.329,2.306,2.306,0,0,0,2.3,2.3h7.9a2.306,2.306,0,0,0,2.3-2.3A.329.329,0,0,0,39.482,375.469Zm-1.974,1.974h-7.9A1.648,1.648,0,0,1,28,376.127H39.12A1.648,1.648,0,0,1,37.508,377.443Z" transform="translate(-27.308 -375.469)" fill="#646464"/>
      </g>
    </g>
    <g id="Group_360" data-name="Group 360" transform="translate(6.828 16.123)">
      <g id="Group_359" data-name="Group 359" transform="translate(0)">
        <path id="Path_1437" data-name="Path 1437" d="M19.989,334.509H8.144a1.316,1.316,0,0,0,0,2.632H19.989a1.316,1.316,0,0,0,0-2.632Zm0,1.974H8.144a.658.658,0,0,1,0-1.316H19.989a.658.658,0,0,1,0,1.316Z" transform="translate(-6.828 -334.509)" fill="#646464"/>
      </g>
    </g>
    <g id="Group_362" data-name="Group 362" transform="translate(17.779 9.872)">
      <g id="Group_361" data-name="Group 361">
        <path id="Path_1438" data-name="Path 1438" d="M237.248,204.8a3.289,3.289,0,0,0-3.186,2.466.329.329,0,1,0,.637.165,2.631,2.631,0,1,1,1.67,3.142.329.329,0,0,0-.22.62,3.291,3.291,0,1,0,1.1-6.392Z" transform="translate(-234.051 -204.802)" fill="#646464"/>
      </g>
    </g>
    <g id="Group_364" data-name="Group 364" transform="translate(7.815 10.859)">
      <g id="Group_363" data-name="Group 363" transform="translate(0)">
        <path id="Path_1439" data-name="Path 1439" d="M34.217,225.282H32.9a5.6,5.6,0,0,0-5.593,5.593.329.329,0,0,0,.329.329H39.482a.329.329,0,0,0,.329-.329A5.6,5.6,0,0,0,34.217,225.282Zm-6.241,5.264A4.942,4.942,0,0,1,32.9,225.94h1.316a4.942,4.942,0,0,1,4.924,4.606Z" transform="translate(-27.308 -225.282)" fill="#646464"/>
      </g>
    </g>
    <g id="Group_366" data-name="Group 366" transform="translate(10.776 12.833)">
      <g id="Group_365" data-name="Group 365">
        <rect id="Rectangle_497" data-name="Rectangle 497" width="0.658" height="0.658" fill="#ffc619"/>
      </g>
    </g>
    <g id="Group_368" data-name="Group 368" transform="translate(10.447 14.149)">
      <g id="Group_367" data-name="Group 367">
        <rect id="Rectangle_498" data-name="Rectangle 498" width="0.658" height="0.658" fill="#b31f24"/>
      </g>
    </g>
    <g id="Group_370" data-name="Group 370" transform="translate(14.396 12.504)">
      <g id="Group_369" data-name="Group 369" transform="translate(0)">
        <rect id="Rectangle_499" data-name="Rectangle 499" width="0.658" height="0.658" fill="#ffc619"/>
      </g>
    </g>
    <g id="Group_372" data-name="Group 372" transform="translate(16.37 14.149)">
      <g id="Group_371" data-name="Group 371">
        <rect id="Rectangle_500" data-name="Rectangle 500" width="0.658" height="0.658" fill="#b31f24"/>
      </g>
    </g>
    <g id="Group_374" data-name="Group 374" transform="translate(13.408 14.478)">
      <g id="Group_373" data-name="Group 373">
        <rect id="Rectangle_501" data-name="Rectangle 501" width="0.658" height="0.658" fill="#b31f24"/>
      </g>
    </g>
    <g id="Group_376" data-name="Group 376" transform="translate(15.054 4.607)">
      <g id="Group_375" data-name="Group 375">
        <path id="Path_1440" data-name="Path 1440" d="M189.01,95.576H177.823a.329.329,0,0,0-.329.329v1.316a.329.329,0,0,0,.329.329H189.01a.329.329,0,0,0,.329-.329V95.905A.329.329,0,0,0,189.01,95.576Zm-.329,1.316H178.152v-.658h10.529Z" transform="translate(-177.494 -95.576)" fill="#646464"/>
      </g>
    </g>
    <g id="Group_378" data-name="Group 378" transform="translate(16.37 0.001)">
      <g id="Group_377" data-name="Group 377" transform="translate(0 0)">
        <path id="Path_1441" data-name="Path 1441" d="M206.436,4.867,205.449.261a.329.329,0,0,0-.644.138l.987,4.606a.329.329,0,0,0,.321.26.322.322,0,0,0,.069-.007A.329.329,0,0,0,206.436,4.867Z" transform="translate(-204.798 -0.001)" fill="#646464"/>
      </g>
    </g>
  </g>
</svg>
