<svg width="50" height="50" viewBox="0 0 50 50" fill="none" xmlns="http://www.w3.org/2000/svg">
<path d="M25.0002 49.188C38.4451 49.188 49.3442 38.2888 49.3442 24.844C49.3442 11.3992 38.4451 0.5 25.0002 0.5C11.5554 0.5 0.65625 11.3992 0.65625 24.844C0.65625 38.2888 11.5554 49.188 25.0002 49.188Z" fill="#5FC93F"/>
<path d="M25.0002 47.688C37.6166 47.688 47.8442 37.4604 47.8442 24.844C47.8442 12.2276 37.6166 2 25.0002 2C12.3839 2 2.15625 12.2276 2.15625 24.844C2.15625 37.4604 12.3839 47.688 25.0002 47.688Z" stroke="white" stroke-width="3"/>
<path d="M18.2482 23.2863C17.8343 23.2873 17.4293 23.4055 17.0798 23.6272C16.7304 23.8489 16.4509 24.165 16.2736 24.5389C16.0964 24.9128 16.0287 25.3293 16.0783 25.7402C16.128 26.151 16.2929 26.5394 16.5542 26.8603L22.1202 33.6783C22.3187 33.9248 22.5731 34.1203 22.8623 34.2486C23.1516 34.377 23.4672 34.4345 23.7832 34.4163C24.1209 34.3956 24.4488 34.2948 24.7399 34.1223C25.0309 33.9498 25.2768 33.7106 25.4572 33.4243L37.0192 14.8043L37.0252 14.7953C37.0786 14.6779 37.0927 14.5464 37.0655 14.4203C37.0383 14.2942 36.9712 14.1803 36.8742 14.0953C36.8126 14.0383 36.7401 13.9945 36.661 13.9666C36.5819 13.9387 36.4979 13.9273 36.4142 13.9331C36.3306 13.9389 36.249 13.9618 36.1745 14.0004C36.1 14.0389 36.0342 14.0924 35.9812 14.1573L35.9692 14.1713L24.3082 27.3423C24.2638 27.3926 24.2099 27.4335 24.1496 27.4627C24.0893 27.4919 24.0238 27.5088 23.9568 27.5125C23.8899 27.5161 23.8229 27.5064 23.7598 27.4839C23.6967 27.4613 23.6387 27.4265 23.5892 27.3813L19.7192 23.8603C19.3177 23.492 18.793 23.2872 18.2482 23.2863Z" fill="white"/>
</svg>
