<svg width="6" height="14" viewBox="0 0 6 14" fill="none" xmlns="http://www.w3.org/2000/svg">
<path d="M1.85547 1.33398C1.85547 1.03451 1.95964 0.774089 2.16797 0.552734C2.38281 0.33138 2.65299 0.220703 2.97852 0.220703C3.28451 0.220703 3.54818 0.328125 3.76953 0.542969C3.99089 0.757812 4.10156 1.02148 4.10156 1.33398C4.10156 1.64648 3.99089 1.91341 3.76953 2.13477C3.54818 2.34961 3.28451 2.45703 2.97852 2.45703C2.66602 2.45703 2.39909 2.34635 2.17773 2.125C1.96289 1.90365 1.85547 1.63997 1.85547 1.33398ZM2.11914 12.3496V6.19727H0.644531V4.54688H3.97461V12.3496H5.42969V14H0.644531V12.3496H2.11914Z" fill="white"/>
</svg>
