<svg width="22" height="20" viewBox="0 0 22 20" fill="none" xmlns="http://www.w3.org/2000/svg">
<path d="M5.78301 5.79173V5.44073C5.77633 5.35248 5.73656 5.27 5.67166 5.20983C5.60676 5.14965 5.52152 5.11621 5.43301 5.11621C5.3445 5.11621 5.25926 5.14965 5.19436 5.20983C5.12946 5.27 5.08968 5.35248 5.08301 5.44073V5.79173C5.08968 5.87999 5.12946 5.96246 5.19436 6.02264C5.25926 6.08282 5.3445 6.11626 5.43301 6.11626C5.52152 6.11626 5.60676 6.08282 5.67166 6.02264C5.73656 5.96246 5.77633 5.87999 5.78301 5.79173Z" fill="#646464"/>
<path d="M7.537 6.14395C7.62991 6.14342 7.71883 6.10607 7.78425 6.04009C7.84967 5.9741 7.88626 5.88487 7.886 5.79195V5.44095C7.88964 5.39277 7.8833 5.34434 7.86736 5.29872C7.85142 5.2531 7.82624 5.21126 7.79338 5.17583C7.76053 5.14039 7.72071 5.11212 7.67642 5.09279C7.63213 5.07346 7.58432 5.06348 7.536 5.06348C7.48767 5.06348 7.43987 5.07346 7.39558 5.09279C7.35129 5.11212 7.31147 5.14039 7.27861 5.17583C7.24576 5.21126 7.22057 5.2531 7.20463 5.29872C7.1887 5.34434 7.18235 5.39277 7.186 5.44095V5.79195C7.18587 5.83813 7.19485 5.88388 7.21243 5.92658C7.23001 5.96928 7.25584 6.0081 7.28845 6.04079C7.32106 6.07349 7.35979 6.09944 7.40244 6.11714C7.44509 6.13484 7.49082 6.14395 7.537 6.14395Z" fill="#646464"/>
<path d="M9.289 9.99859H7.889V9.2696C8.26254 9.05269 8.58113 8.7527 8.8201 8.39287C9.05906 8.03304 9.21197 7.62302 9.267 7.19459H9.642C9.92077 7.1938 10.1879 7.08271 10.385 6.8856C10.5821 6.68848 10.6932 6.42136 10.694 6.14259V5.79159C10.6934 5.64454 10.6619 5.49925 10.6014 5.3652C10.5409 5.23116 10.4529 5.11135 10.343 5.01359V2.63759C10.3431 2.40714 10.2978 2.17891 10.2097 1.96598C10.1215 1.75305 9.99221 1.5596 9.82921 1.39668C9.6662 1.23377 9.47267 1.1046 9.25969 1.01655C9.04671 0.928513 8.81846 0.883331 8.588 0.883594H8.238C8.02955 0.883811 7.82588 0.946129 7.653 1.06259C7.57738 0.927407 7.48313 0.803527 7.373 0.694595C7.04393 0.366968 6.59836 0.183204 6.134 0.183594H5.083C4.43188 0.183594 3.80739 0.442044 3.3467 0.902172C2.88601 1.3623 2.6268 1.98648 2.626 2.63759V5.01359C2.51614 5.11135 2.4281 5.23116 2.36762 5.3652C2.30715 5.49925 2.27559 5.64454 2.275 5.79159V6.14259C2.27579 6.42119 2.38674 6.68816 2.58364 6.88524C2.78055 7.08233 3.04741 7.19354 3.326 7.19459H3.701C3.75603 7.62302 3.90895 8.03304 4.14791 8.39287C4.38687 8.7527 4.70546 9.05269 5.079 9.2696V9.99859H3.679C2.843 10.0004 2.04179 10.3335 1.45083 10.9248C0.859872 11.5162 0.527322 12.3176 0.526001 13.1536V15.2536C0.526001 15.3467 0.562981 15.436 0.628807 15.5018C0.694632 15.5676 0.78391 15.6046 0.877001 15.6046V19.4606C0.877001 19.5537 0.913981 19.643 0.979806 19.7088C1.04563 19.7746 1.13491 19.8116 1.228 19.8116H11.743C11.8361 19.8116 11.9254 19.7746 11.9912 19.7088C12.057 19.643 12.094 19.5537 12.094 19.4606V15.6066C12.1871 15.6066 12.2764 15.5696 12.3422 15.5038C12.408 15.438 12.445 15.3487 12.445 15.2556V13.1556C12.4442 12.3187 12.1115 11.5163 11.5198 10.9245C10.9281 10.3326 10.1259 9.99965 9.289 9.99859ZM9.989 5.79259V6.14359C9.989 6.23669 9.95202 6.32596 9.8862 6.39179C9.82037 6.45761 9.73109 6.49459 9.638 6.49459H9.287V5.44159H9.638C9.6841 5.44146 9.72976 5.45041 9.7724 5.46793C9.81503 5.48545 9.8538 5.51119 9.88649 5.54369C9.91918 5.57619 9.94514 5.61481 9.9629 5.65735C9.98066 5.69988 9.98987 5.7455 9.99 5.79159L9.989 5.79259ZM3.679 6.49259H3.326C3.23291 6.49259 3.14363 6.45561 3.07781 6.38979C3.01198 6.32396 2.975 6.23469 2.975 6.14159V5.79059C2.975 5.6975 3.01198 5.60823 3.07781 5.5424C3.14363 5.47657 3.23291 5.43959 3.326 5.43959H3.677L3.679 6.49259ZM3.679 4.39259V4.74359H3.326V2.64359C3.32508 2.41246 3.36987 2.18343 3.4578 1.96967C3.54574 1.75592 3.67507 1.56167 3.83837 1.39809C4.00167 1.23451 4.1957 1.10485 4.40931 1.01655C4.62291 0.928249 4.85187 0.883065 5.083 0.883594H6.134C6.27242 0.882931 6.4096 0.909722 6.5376 0.962418C6.6656 1.01511 6.78188 1.09267 6.87971 1.19059C6.97754 1.28852 7.05499 1.40487 7.10756 1.53292C7.16014 1.66097 7.1868 1.79817 7.186 1.93659C7.18236 1.98478 7.1887 2.0332 7.20464 2.07882C7.22057 2.12445 7.24576 2.16628 7.27862 2.20172C7.31147 2.23716 7.35129 2.26543 7.39558 2.28476C7.43987 2.30409 7.48768 2.31407 7.536 2.31407C7.58433 2.31407 7.63213 2.30409 7.67642 2.28476C7.72071 2.26543 7.76053 2.23716 7.79339 2.20172C7.82624 2.16628 7.85143 2.12445 7.86736 2.07882C7.8833 2.0332 7.88965 1.98478 7.886 1.93659C7.88574 1.89025 7.89465 1.84431 7.91224 1.80143C7.92982 1.75854 7.95572 1.71957 7.98845 1.68675C8.02117 1.65393 8.06008 1.62792 8.10291 1.61021C8.14574 1.59251 8.19165 1.58346 8.238 1.58359H8.589C8.86777 1.58439 9.13489 1.69548 9.332 1.89259C9.52912 2.08971 9.64021 2.35683 9.641 2.63559V4.73559H9.29V4.38459C9.28763 4.10687 9.17585 3.84129 8.9789 3.64546C8.78195 3.44964 8.51573 3.33937 8.238 3.33859H4.732C4.45324 3.33939 4.18612 3.45048 3.989 3.64759C3.79188 3.84471 3.68079 4.11183 3.68 4.39059L3.679 4.39259ZM4.379 6.84659V4.38959C4.379 4.2965 4.41598 4.20723 4.48181 4.1414C4.54763 4.07557 4.63691 4.03859 4.73 4.03859H8.238C8.33109 4.03859 8.42037 4.07557 8.4862 4.1414C8.55202 4.20723 8.589 4.2965 8.589 4.38959V6.84359C8.589 7.40134 8.36744 7.93625 7.97305 8.33064C7.57866 8.72503 7.04375 8.94659 6.486 8.94659C5.92825 8.94659 5.39334 8.72503 4.99896 8.33064C4.60457 7.93625 4.383 7.40134 4.383 6.84359L4.379 6.84659ZM5.079 10.7026C5.26465 10.7026 5.4427 10.6288 5.57398 10.4976C5.70525 10.3663 5.779 10.1882 5.779 10.0026V9.56059C6.23781 9.68174 6.7202 9.68174 7.179 9.56059V10.0026C7.179 10.1882 7.25275 10.3663 7.38403 10.4976C7.5153 10.6288 7.69335 10.7026 7.879 10.7026H8.194C8.11311 11.0984 7.89799 11.4541 7.58504 11.7096C7.27208 11.9651 6.88049 12.1046 6.4765 12.1046C6.07251 12.1046 5.68092 11.9651 5.36797 11.7096C5.05501 11.4541 4.83989 11.0984 4.759 10.7026H5.079ZM2.979 19.1156H1.579V15.6066H2.979V19.1156ZM11.392 19.1156H9.992V15.6066H11.392V19.1156ZM11.743 14.9096H9.99V13.8546C9.98332 13.7663 9.94355 13.6839 9.87865 13.6237C9.81375 13.5635 9.72851 13.5301 9.64 13.5301C9.55149 13.5301 9.46625 13.5635 9.40135 13.6237C9.33645 13.6839 9.29668 13.7663 9.29 13.8546V19.1126H3.681V13.8546C3.67432 13.7663 3.63455 13.6839 3.56965 13.6237C3.50475 13.5635 3.41951 13.5301 3.331 13.5301C3.24249 13.5301 3.15725 13.5635 3.09235 13.6237C3.02745 13.6839 2.98768 13.7663 2.981 13.8546V14.9066H1.226V13.1536C1.22679 12.503 1.4856 11.8793 1.94564 11.4192C2.40568 10.9592 3.0294 10.7004 3.68 10.6996H4.059C4.14373 11.2824 4.4355 11.8152 4.8809 12.2006C5.3263 12.5859 5.89555 12.798 6.4845 12.798C7.07345 12.798 7.6427 12.5859 8.08811 12.2006C8.53351 11.8152 8.82527 11.2824 8.91 10.6996H9.289C9.9396 10.7004 10.5633 10.9592 11.0234 11.4192C11.4834 11.8793 11.7422 12.503 11.743 13.1536V14.9096Z" fill="#646464"/>
<path d="M20.506 9.29799H19.455V6.49299H19.806C19.8542 6.49664 19.9026 6.49029 19.9483 6.47436C19.9939 6.45842 20.0357 6.43323 20.0711 6.40038C20.1066 6.36752 20.1349 6.3277 20.1542 6.28341C20.1735 6.23912 20.1835 6.19132 20.1835 6.14299C20.1835 6.09467 20.1735 6.04686 20.1542 6.00257C20.1349 5.95828 20.1066 5.91846 20.0711 5.88561C20.0357 5.85275 19.9939 5.82757 19.9483 5.81163C19.9026 5.79569 19.8542 5.78935 19.806 5.79299H14.898C14.8098 5.79967 14.7273 5.83944 14.6671 5.90434C14.6069 5.96924 14.5735 6.05448 14.5735 6.14299C14.5735 6.2315 14.6069 6.31674 14.6671 6.38164C14.7273 6.44654 14.8098 6.48632 14.898 6.49299H15.245V9.29299H14.197C13.9174 9.29379 13.6495 9.40556 13.4523 9.60376C13.255 9.80196 13.1445 10.0704 13.145 10.35V18.763C13.1458 19.0418 13.2569 19.3089 13.454 19.506C13.6511 19.7031 13.9183 19.8142 14.197 19.815H20.507C20.7858 19.8142 21.0529 19.7031 21.25 19.506C21.4471 19.3089 21.5582 19.0418 21.559 18.763V10.35C21.5582 10.0711 21.447 9.80378 21.2497 9.60664C21.0523 9.40949 20.785 9.29852 20.506 9.29799ZM15.945 6.49299H18.745V9.29299H15.945V6.49299ZM13.845 10.349C13.845 10.2559 13.882 10.1666 13.9478 10.1008C14.0137 10.035 14.1029 9.99799 14.196 9.99799H14.545V10.349C14.545 10.4421 14.508 10.5314 14.4422 10.5972C14.3764 10.663 14.2871 10.7 14.194 10.7H13.845V10.349ZM14.545 19.112H14.194C14.1009 19.112 14.0117 19.075 13.9458 19.0092C13.88 18.9434 13.843 18.8541 13.843 18.761V18.41H14.194C14.2871 18.41 14.3764 18.447 14.4422 18.5128C14.508 18.5786 14.545 18.6679 14.545 18.761V19.112ZM20.855 18.761C20.855 18.8541 20.818 18.9434 20.7522 19.0092C20.6864 19.075 20.5971 19.112 20.504 19.112H20.153V18.763C20.153 18.6699 20.19 18.5806 20.2558 18.5148C20.3217 18.449 20.4109 18.412 20.504 18.412H20.855V18.761ZM20.855 17.709H20.504C20.2254 17.7106 19.9588 17.8223 19.7623 18.0198C19.5657 18.2172 19.4553 18.4844 19.455 18.763V19.114H15.245V18.763C15.2442 18.4842 15.1331 18.2171 14.936 18.02C14.7389 17.8229 14.4718 17.7118 14.193 17.711H13.845V11.401H14.196C14.4741 11.3994 14.7403 11.2881 14.9367 11.0913C15.1332 10.8945 15.244 10.6281 15.245 10.35V9.99899H19.455V10.35C19.4558 10.6288 19.5669 10.8959 19.764 11.093C19.9611 11.2901 20.2283 11.4012 20.507 11.402H20.858L20.855 17.709ZM20.855 10.698H20.504C20.4109 10.698 20.3217 10.661 20.2558 10.5952C20.19 10.5294 20.153 10.4401 20.153 10.347V9.99599H20.504C20.5971 9.99599 20.6864 10.033 20.7522 10.0988C20.818 10.1646 20.855 10.2539 20.855 10.347V10.698Z" fill="#646464"/>
<path d="M15.95 11.4004C15.8569 11.4004 15.7676 11.4374 15.7018 11.5032C15.636 11.569 15.599 11.6583 15.599 11.7514V17.3594C15.6057 17.4476 15.6454 17.5301 15.7104 17.5903C15.7753 17.6505 15.8605 17.6839 15.949 17.6839C16.0375 17.6839 16.1227 17.6505 16.1876 17.5903C16.2526 17.5301 16.2923 17.4476 16.299 17.3594V11.7514C16.299 11.6586 16.2623 11.5697 16.1969 11.5039C16.1315 11.4381 16.0427 11.4009 15.95 11.4004Z" fill="#B31F24"/>
<path d="M17.352 11.4004C17.2589 11.4004 17.1696 11.4374 17.1038 11.5032C17.038 11.569 17.001 11.6583 17.001 11.7514V17.3594C17.0077 17.4476 17.0474 17.5301 17.1123 17.5903C17.1772 17.6505 17.2625 17.6839 17.351 17.6839C17.4395 17.6839 17.5247 17.6505 17.5896 17.5903C17.6545 17.5301 17.6943 17.4476 17.701 17.3594V11.7514C17.701 11.6586 17.6643 11.5697 17.5989 11.5039C17.5335 11.4381 17.4447 11.4009 17.352 11.4004Z" fill="#B31F24"/>
<path d="M18.754 11.4004C18.6609 11.4004 18.5716 11.4374 18.5058 11.5032C18.44 11.569 18.403 11.6583 18.403 11.7514V17.3594C18.4097 17.4476 18.4495 17.5301 18.5144 17.5903C18.5793 17.6505 18.6645 17.6839 18.753 17.6839C18.8415 17.6839 18.9268 17.6505 18.9917 17.5903C19.0566 17.5301 19.0963 17.4476 19.103 17.3594V11.7514C19.103 11.6586 19.0663 11.5697 19.0009 11.5039C18.9355 11.4381 18.8468 11.4009 18.754 11.4004Z" fill="#B31F24"/>
<path d="M7.60598 7.68541C7.63592 7.64877 7.65815 7.60646 7.67132 7.56101C7.68449 7.51557 7.68834 7.46793 7.68263 7.42096C7.67692 7.37399 7.66178 7.32866 7.6381 7.28769C7.61443 7.24672 7.58272 7.21097 7.54487 7.18257C7.50703 7.15417 7.46383 7.13371 7.41788 7.12243C7.37193 7.11115 7.32417 7.10927 7.27748 7.11692C7.23079 7.12456 7.18612 7.14157 7.14617 7.16691C7.10621 7.19226 7.07179 7.22542 7.04498 7.26441C6.9773 7.34796 6.8918 7.41534 6.79474 7.46162C6.69768 7.5079 6.59151 7.53192 6.48398 7.53192C6.37646 7.53192 6.27028 7.5079 6.17323 7.46162C6.07617 7.41534 5.99067 7.34796 5.92298 7.26441C5.89617 7.22542 5.86176 7.19226 5.8218 7.16691C5.78185 7.14157 5.73718 7.12456 5.69049 7.11692C5.64379 7.10927 5.59604 7.11115 5.55009 7.12243C5.50414 7.13371 5.46094 7.15417 5.4231 7.18257C5.38525 7.21097 5.35354 7.24672 5.32987 7.28769C5.30619 7.32866 5.29105 7.37399 5.28534 7.42096C5.27963 7.46793 5.28348 7.51557 5.29665 7.56101C5.30982 7.60646 5.33204 7.64877 5.36198 7.68541C5.49233 7.85986 5.66158 8.00149 5.85627 8.09905C6.05096 8.19661 6.26572 8.24741 6.48348 8.24741C6.70125 8.24741 6.91601 8.19661 7.1107 8.09905C7.30539 8.00149 7.47564 7.85986 7.60598 7.68541Z" fill="#646464"/>
</svg>
