<svg xmlns="http://www.w3.org/2000/svg" width="14.854" height="14.854" viewBox="0 0 14.854 14.854">
  <g id="location" transform="translate(0 -0.001)">
    <path id="Path_3173" data-name="Path 3173" d="M14.84,14.56,12.664,8.828a.218.218,0,0,0-.1-.112L10.25,7.41l.677-1.073a4.134,4.134,0,1,0-7,0L4.6,7.41,2.287,8.716a.218.218,0,0,0-.1.112L.014,14.56a.218.218,0,0,0,.31.267l3.5-1.971,3.5,1.971a.218.218,0,0,0,.214,0l3.5-1.971,3.5,1.971a.218.218,0,0,0,.31-.267Zm-7.2-3.282a.651.651,0,0,0,.334-.267L9.843,8.056l.943,4.439-3.141,1.77ZM4.3,6.105a3.7,3.7,0,1,1,6.262,0L7.613,10.776v0a.217.217,0,0,1-.368,0L4.3,6.107v0ZM2.569,9.057,4.6,7.914,4.244,9.576a.218.218,0,1,0,.426.091l.342-1.61,1.863,2.955a.654.654,0,0,0,.334.267v2.987L4.069,12.5l.42-1.977a.218.218,0,0,0-.426-.091L3.63,12.465l-3,1.688Zm8.655,3.409-.967-4.552,2.028,1.143,1.935,5.1Z" transform="translate(0)" fill="#3d3c3c"/>
    <path id="Path_3174" data-name="Path 3174" d="M178.288,62.393a2.393,2.393,0,1,0-2.393,2.393A2.4,2.4,0,0,0,178.288,62.393Zm-4.352,0a1.958,1.958,0,1,1,1.958,1.958A1.961,1.961,0,0,1,173.936,62.393Z" transform="translate(-168.467 -58.258)" fill="#b31f24"/>
    <path id="Path_3175" data-name="Path 3175" d="M206.547,91.523a1.523,1.523,0,1,0-1.523,1.523A1.525,1.525,0,0,0,206.547,91.523Zm-2.611,0a1.088,1.088,0,1,1,1.088,1.088A1.089,1.089,0,0,1,203.936,91.523Z" transform="translate(-197.597 -87.388)" fill="#b31f24"/>
  </g>
</svg>
