<svg width="19" height="12" viewBox="0 0 19 12" fill="none" xmlns="http://www.w3.org/2000/svg">
<path d="M10.1943 6.60764H9.75326V4.18164C9.75326 4.12303 9.72997 4.06682 9.68853 4.02537C9.64708 3.98392 9.59087 3.96064 9.53226 3.96064H9.15826C9.02696 3.96017 8.8985 3.99881 8.78926 4.07164L8.36626 4.35364C8.34209 4.36967 8.32134 4.39032 8.30518 4.4144C8.28903 4.43848 8.27779 4.46552 8.27213 4.49396C8.26646 4.52239 8.26646 4.55167 8.27215 4.58011C8.27784 4.60854 8.28909 4.63557 8.30526 4.65964L8.55026 5.02664C8.56629 5.0508 8.58694 5.07156 8.61102 5.08771C8.6351 5.10387 8.66214 5.1151 8.69057 5.12077C8.71901 5.12644 8.74829 5.12643 8.77672 5.12075C8.80516 5.11506 8.83219 5.10381 8.85626 5.08764L8.86926 5.07864V6.60764H8.43026C8.37164 6.60764 8.31543 6.63092 8.27399 6.67237C8.23254 6.71382 8.20926 6.77003 8.20926 6.82864V7.26964C8.20926 7.32825 8.23254 7.38447 8.27399 7.42591C8.31543 7.46736 8.37164 7.49064 8.43026 7.49064H10.1943C10.2529 7.49064 10.3091 7.46736 10.3505 7.42591C10.392 7.38447 10.4153 7.32825 10.4153 7.26964V6.83164C10.4157 6.80237 10.4102 6.77331 10.3993 6.74615C10.3884 6.71899 10.3722 6.69427 10.3516 6.67343C10.331 6.65259 10.3065 6.63604 10.2795 6.62475C10.2525 6.61345 10.2235 6.60764 10.1943 6.60764ZM17.2523 0.431641H1.37126C1.13734 0.431641 0.912997 0.524565 0.74759 0.689972C0.582183 0.855379 0.489258 1.07972 0.489258 1.31364L0.489258 10.1366C0.489258 10.3706 0.582183 10.5949 0.74759 10.7603C0.912997 10.9257 1.13734 11.0186 1.37126 11.0186H17.2523C17.4862 11.0186 17.7105 10.9257 17.8759 10.7603C18.0413 10.5949 18.1343 10.3706 18.1343 10.1366V1.31364C18.1343 1.07972 18.0413 0.855379 17.8759 0.689972C17.7105 0.524565 17.4862 0.431641 17.2523 0.431641ZM1.81226 9.69564V7.93164C2.04408 7.93151 2.27365 7.97707 2.48785 8.06573C2.70205 8.15438 2.89667 8.28438 3.06059 8.4483C3.22452 8.61223 3.35452 8.80685 3.44317 9.02105C3.53183 9.23525 3.57739 9.46482 3.57726 9.69664L1.81226 9.69564ZM1.81226 3.51964V1.75464H3.57726C3.57739 1.98646 3.53183 2.21603 3.44317 2.43023C3.35452 2.64443 3.22452 2.83906 3.06059 3.00298C2.89667 3.1669 2.70205 3.2969 2.48785 3.38556C2.27365 3.47421 2.04408 3.51977 1.81226 3.51964ZM9.31226 8.81364C8.55347 8.75081 7.85004 8.39138 7.35452 7.81331C6.859 7.23523 6.61134 6.48512 6.66526 5.72564C6.61134 4.96616 6.859 4.21605 7.35452 3.63798C7.85004 3.0599 8.55347 2.70047 9.31226 2.63764C10.071 2.70047 10.7745 3.0599 11.27 3.63798C11.7655 4.21605 12.0132 4.96616 11.9593 5.72564C12.0132 6.48512 11.7655 7.23523 11.27 7.81331C10.7745 8.39138 10.071 8.75081 9.31226 8.81364ZM16.8123 9.69564H15.0473C15.0473 9.2278 15.2331 8.77912 15.5639 8.4483C15.8947 8.11749 16.3434 7.93164 16.8113 7.93164L16.8123 9.69564ZM16.8123 3.51964C16.5804 3.51977 16.3509 3.47421 16.1367 3.38556C15.9225 3.2969 15.7278 3.1669 15.5639 3.00298C15.4 2.83906 15.27 2.64443 15.1813 2.43023C15.0927 2.21603 15.0471 1.98646 15.0473 1.75464H16.8123V3.51964Z" fill="white"/>
</svg>
