<svg width="13" height="13" viewBox="0 0 13 13" fill="none" xmlns="http://www.w3.org/2000/svg">
<path d="M0.382812 9.592V12.116H2.90681L10.3508 4.672L7.82681 2.148L0.382812 9.592ZM12.3028 2.72C12.3652 2.65776 12.4148 2.58381 12.4486 2.50238C12.4824 2.42096 12.4998 2.33366 12.4998 2.2455C12.4998 2.15734 12.4824 2.07005 12.4486 1.98862C12.4148 1.9072 12.3652 1.83324 12.3028 1.771L10.7278 0.196002C10.6656 0.133565 10.5916 0.0840258 10.5102 0.0502243C10.4288 0.0164228 10.3415 -0.000976562 10.2533 -0.000976562C10.1652 -0.000976562 10.0779 0.0164228 9.99643 0.0502243C9.91501 0.0840258 9.84105 0.133565 9.77881 0.196002L8.54681 1.428L11.0708 3.952L12.3028 2.72Z" fill="#B31F24"/>
</svg>
