<svg width="12" height="13" viewBox="0 0 12 13" fill="none" xmlns="http://www.w3.org/2000/svg">
<path d="M9.50028 1.81215C10.4762 2.50911 11.2055 3.49802 11.583 4.63625C11.9605 5.77449 11.9668 7.00321 11.6008 8.14523C11.2349 9.28724 10.5157 10.2835 9.54695 10.9904C8.57821 11.6972 7.40999 12.0781 6.21078 12.0781C5.01157 12.0781 3.84335 11.6972 2.87461 10.9904C1.90587 10.2835 1.18666 9.28724 0.820731 8.14523C0.454798 7.00321 0.461046 5.77449 0.838574 4.63625C1.2161 3.49802 1.9454 2.50911 2.92128 1.81215C2.98403 1.76703 3.05558 1.73563 3.13127 1.72002C3.20696 1.7044 3.2851 1.70491 3.36058 1.72152C3.43606 1.73812 3.5072 1.77045 3.56935 1.81639C3.6315 1.86233 3.68327 1.92086 3.72128 1.98815L4.08228 2.62915C4.14749 2.74535 4.16812 2.88132 4.14033 3.01164C4.11254 3.14195 4.03822 3.25767 3.93128 3.33715C3.28296 3.8172 2.80257 4.48951 2.55849 5.2584C2.31441 6.02729 2.31907 6.85358 2.57182 7.61967C2.82457 8.38575 3.31252 9.0526 3.96622 9.52529C4.61993 9.99798 5.40608 10.2524 6.21278 10.2524C7.01948 10.2524 7.80563 9.99798 8.45934 9.52529C9.11304 9.0526 9.60099 8.38575 9.85374 7.61967C10.1065 6.85358 10.1112 6.02729 9.86708 5.2584C9.623 4.48951 9.14261 3.8172 8.49428 3.33715C8.38807 3.25776 8.31444 3.14237 8.2872 3.01259C8.25995 2.88281 8.28096 2.74755 8.34628 2.63215L8.70728 1.99115C8.74485 1.92423 8.79608 1.86596 8.85764 1.82014C8.9192 1.77431 8.98972 1.74195 9.0646 1.72517C9.13949 1.70838 9.21707 1.70754 9.2923 1.72269C9.36754 1.73785 9.43874 1.76867 9.50128 1.81315L9.50028 1.81215ZM7.12628 6.60315V1.12515C7.12641 1.05323 7.11236 0.981998 7.08493 0.915517C7.0575 0.849037 7.01723 0.788618 6.96642 0.737718C6.91562 0.686818 6.85527 0.646437 6.78884 0.618885C6.72241 0.591334 6.6512 0.577152 6.57928 0.577152H5.84928C5.7772 0.576888 5.70577 0.590876 5.63911 0.618309C5.57245 0.645743 5.51186 0.686083 5.46085 0.737009C5.40983 0.787935 5.36938 0.848443 5.34182 0.915054C5.31427 0.981665 5.30015 1.05307 5.30028 1.12515V6.60315C5.30015 6.67515 5.31423 6.74647 5.34173 6.81302C5.36922 6.87956 5.40958 6.94003 5.46049 6.99094C5.51141 7.04185 5.57187 7.08221 5.63841 7.10971C5.70496 7.1372 5.77628 7.15128 5.84828 7.15115H6.57828C6.65028 7.15128 6.7216 7.1372 6.78815 7.10971C6.85469 7.08221 6.91516 7.04185 6.96607 6.99094C7.01698 6.94003 7.05734 6.87956 7.08484 6.81302C7.11233 6.74647 7.12641 6.67515 7.12628 6.60315Z" fill="white"/>
</svg>
