<svg width="12" height="15" viewBox="0 0 12 15" fill="none" xmlns="http://www.w3.org/2000/svg">
<path d="M10.659 2.25759H8.69097V1.86459C8.69071 1.55163 8.56633 1.25154 8.34513 1.03015C8.12392 0.808751 7.82394 0.684123 7.51097 0.683594H4.36197C4.04883 0.683859 3.74859 0.80837 3.52717 1.02979C3.30575 1.25122 3.18124 1.55145 3.18097 1.86459V2.25859H1.21397C0.934821 2.26107 0.665573 2.36236 0.453997 2.54448C0.242422 2.7266 0.102201 2.97778 0.0582131 3.25345C0.0142249 3.52913 0.0693144 3.81148 0.213706 4.0504C0.358097 4.28932 0.582454 4.46936 0.846972 4.55859L1.54697 13.0326C1.57311 13.3272 1.70824 13.6015 1.92592 13.8018C2.1436 14.0021 2.42817 14.114 2.72397 14.1156H9.14697C9.44277 14.114 9.72735 14.0021 9.94503 13.8018C10.1627 13.6015 10.2978 13.3272 10.324 13.0326L11.024 4.55859C11.2885 4.46936 11.5128 4.28932 11.6572 4.0504C11.8016 3.81148 11.8567 3.52913 11.8127 3.25345C11.7687 2.97778 11.6285 2.7266 11.4169 2.54448C11.2054 2.36236 10.9361 2.26107 10.657 2.25859L10.659 2.25759ZM3.96797 1.86359C3.96797 1.7591 4.00948 1.65888 4.08337 1.58499C4.15726 1.5111 4.25748 1.46959 4.36197 1.46959H7.50997C7.61447 1.46959 7.71468 1.5111 7.78857 1.58499C7.86246 1.65888 7.90397 1.7591 7.90397 1.86359V2.25759H3.96897L3.96797 1.86359ZM9.53897 12.9636C9.5294 13.0614 9.48415 13.1523 9.41185 13.2189C9.33954 13.2855 9.24525 13.3231 9.14697 13.3246H2.72497C2.62669 13.3231 2.53241 13.2855 2.4601 13.2189C2.3878 13.1523 2.34254 13.0614 2.33297 12.9636L1.64097 4.61359H10.233L9.53897 12.9636ZM10.658 3.82659H1.21397C1.11304 3.8215 1.01792 3.77783 0.948287 3.70459C0.878649 3.63135 0.839816 3.53415 0.839816 3.43309C0.839816 3.33203 0.878649 3.23484 0.948287 3.1616C1.01792 3.08836 1.11304 3.04468 1.21397 3.03959H10.659C10.7123 3.0369 10.7657 3.04509 10.8157 3.06365C10.8658 3.08221 10.9116 3.11076 10.9503 3.14756C10.989 3.18437 11.0198 3.22866 11.0409 3.27774C11.062 3.32683 11.0728 3.37968 11.0728 3.43309C11.0728 3.48651 11.062 3.53936 11.0409 3.58844C11.0198 3.63753 10.989 3.68182 10.9503 3.71862C10.9116 3.75543 10.8658 3.78398 10.8157 3.80254C10.7657 3.8211 10.7113 3.82928 10.658 3.82659Z" fill="#B31F24"/>
<path d="M4.36082 12.1248L3.96682 5.77577C3.95694 5.67412 3.90796 5.58028 3.83023 5.51404C3.7525 5.44779 3.65208 5.41433 3.55015 5.42069C3.44822 5.42704 3.35274 5.47273 3.28384 5.54811C3.21494 5.6235 3.178 5.72269 3.18081 5.82478L3.57483 12.1748C3.58471 12.2764 3.63368 12.3703 3.71141 12.4365C3.78914 12.5028 3.88955 12.5362 3.99148 12.5299C4.09341 12.5235 4.18889 12.4778 4.25779 12.4025C4.3267 12.3271 4.36364 12.2279 4.36082 12.1258V12.1248Z" fill="#B31F24"/>
<path d="M5.93698 5.40625C5.83248 5.40625 5.73227 5.44776 5.65838 5.52165C5.58449 5.59554 5.54298 5.69575 5.54298 5.80025V12.1492C5.54029 12.2026 5.54847 12.2559 5.56703 12.306C5.58559 12.3561 5.61415 12.4019 5.65095 12.4406C5.68776 12.4793 5.73204 12.5101 5.78112 12.5312C5.83021 12.5522 5.88306 12.5631 5.93647 12.5631C5.98989 12.5631 6.04274 12.5522 6.09182 12.5312C6.14091 12.5101 6.18521 12.4793 6.22201 12.4406C6.25882 12.4019 6.28736 12.3561 6.30592 12.306C6.32448 12.2559 6.33267 12.2026 6.32998 12.1492V5.80025C6.32998 5.69592 6.28861 5.59586 6.21493 5.522C6.14126 5.44814 6.0413 5.40651 5.93698 5.40625Z" fill="#B31F24"/>
<path d="M8.32187 5.40697C8.21782 5.40067 8.11551 5.43587 8.03735 5.50484C7.95919 5.57381 7.91156 5.67094 7.90487 5.77497L7.51187 12.125C7.50905 12.2271 7.546 12.3263 7.6149 12.4016C7.6838 12.477 7.77926 12.5227 7.88119 12.5291C7.98312 12.5354 8.08355 12.5019 8.16128 12.4357C8.23901 12.3695 8.28799 12.2756 8.29788 12.174L8.69186 5.82497C8.69511 5.77321 8.68811 5.72131 8.67126 5.67226C8.65441 5.62321 8.62803 5.57798 8.59366 5.53914C8.55928 5.50031 8.51759 5.46864 8.47094 5.44596C8.4243 5.42328 8.37364 5.41003 8.32187 5.40697Z" fill="#B31F24"/>
</svg>
