<svg xmlns="http://www.w3.org/2000/svg" width="15.157" height="15.159" viewBox="0 0 15.157 15.159">
  <g id="repeat" transform="translate(-21.399 -21.443)">
    <path id="Path_1429" data-name="Path 1429" d="M224.689,117.333a.689.689,0,0,0-.689.689v4.135a.689.689,0,0,0,.689.689h3.1a.689.689,0,1,0,0-1.378h-2.412v-3.446a.689.689,0,0,0-.689-.689Z" transform="translate(-196.056 -92.792)" fill="#b31f24"/>
    <path id="Path_1430" data-name="Path 1430" d="M94.22,23.66a7.59,7.59,0,0,0-10.722,0,.689.689,0,1,0,.975.975,6.2,6.2,0,1,1,.885,9.5l.615-.205a.689.689,0,0,0-.436-1.308l-1.787.6a.689.689,0,0,0-.46.776l.368,2.044a.69.69,0,0,0,.678.567.7.7,0,0,0,.123-.011.689.689,0,0,0,.556-.8l-.05-.276A7.576,7.576,0,0,0,94.22,23.66Z" transform="translate(-59.881)" fill="#b31f24"/>
    <path id="Path_1431" data-name="Path 1431" d="M39.381,141.611a.689.689,0,0,0-.921.318q-.084.172-.157.346a.689.689,0,1,0,1.269.538c.04-.095.083-.188.128-.281A.689.689,0,0,0,39.381,141.611Z" transform="translate(-16.304 -116.218)" fill="#b31f24"/>
    <path id="Path_1432" data-name="Path 1432" d="M22.088,217.858a.689.689,0,0,0,.689-.671q.005-.2.022-.391a.689.689,0,0,0-1.373-.119q-.021.237-.027.474a.689.689,0,0,0,.671.707Z" transform="translate(0 -188.317)" fill="#b31f24"/>
    <path id="Path_1433" data-name="Path 1433" d="M31.512,296.064a.689.689,0,0,0-1.321.395c.036.121.075.241.117.361a.689.689,0,1,0,1.3-.457Q31.557,296.214,31.512,296.064Z" transform="translate(-8.48 -265.273)" fill="#b31f24"/>
  </g>
</svg>
