<svg width="17" height="19" viewBox="0 0 17 19" fill="none" xmlns="http://www.w3.org/2000/svg">
<path d="M15.7451 4.075C15.7451 4.56119 15.6009 5.03646 15.3308 5.4407C15.0607 5.84494 14.6767 6.15999 14.2275 6.346C13.7783 6.53201 13.284 6.58062 12.8072 6.4857C12.3304 6.39078 11.8924 6.15658 11.5487 5.81272C11.205 5.46886 10.9709 5.03079 10.8762 4.55392C10.7815 4.07705 10.8303 3.5828 11.0165 3.13368C11.2027 2.68455 11.5179 2.30073 11.9222 2.03077C12.3266 1.7608 12.8019 1.61681 13.2881 1.617C13.9398 1.61727 14.5648 1.87635 15.0255 2.33729C15.4863 2.79823 15.7451 3.42328 15.7451 4.075Z" stroke="#B31F24" stroke-width="2" stroke-linecap="round" stroke-linejoin="round"/>
<path d="M5.91502 9.80901C5.91502 10.2952 5.77084 10.7705 5.50071 11.1747C5.23057 11.5789 4.84663 11.894 4.39743 12.08C3.94823 12.266 3.45396 12.3146 2.97712 12.2197C2.50029 12.1248 2.06232 11.8906 1.7186 11.5467C1.37488 11.2029 1.14086 10.7648 1.04613 10.2879C0.951403 9.81106 1.00022 9.31681 1.18642 8.86768C1.37261 8.41856 1.68781 8.03474 2.09216 7.76477C2.49651 7.49481 2.97184 7.35082 3.45802 7.35101C4.10975 7.35128 4.7347 7.61036 5.19545 8.0713C5.6562 8.53223 5.91502 9.15728 5.91502 9.80901Z" stroke="#B31F24" stroke-width="2" stroke-linecap="round" stroke-linejoin="round"/>
<path d="M15.7451 15.543C15.7451 16.0292 15.6009 16.5045 15.3308 16.9087C15.0607 17.3129 14.6767 17.628 14.2275 17.814C13.7783 18 13.284 18.0486 12.8072 17.9537C12.3304 17.8588 11.8924 17.6246 11.5487 17.2807C11.205 16.9368 10.9709 16.4988 10.8762 16.0219C10.7815 15.545 10.8303 15.0508 11.0165 14.6017C11.2027 14.1525 11.5179 13.7687 11.9222 13.4988C12.3266 13.2288 12.8019 13.0848 13.2881 13.085C13.9398 13.0853 14.5648 13.3443 15.0255 13.8053C15.4863 14.2662 15.7451 14.8913 15.7451 15.543Z" stroke="#B31F24" stroke-width="2" stroke-linecap="round" stroke-linejoin="round"/>
<path d="M5.5791 11.046L11.1741 14.306" stroke="#B31F24" stroke-width="2" stroke-linecap="round" stroke-linejoin="round"/>
<path d="M11.1661 5.311L5.5791 8.571" stroke="#B31F24" stroke-width="2" stroke-linecap="round" stroke-linejoin="round"/>
</svg>
