<svg xmlns="http://www.w3.org/2000/svg" width="16.39" height="15.838" viewBox="0 0 16.39 15.838">
  <g id="tour_ic" transform="translate(0)">
    <g id="Group_13" data-name="Group 13" transform="translate(0 0)">
      <path id="Path_14" data-name="Path 14" d="M138.052,417.5a.552.552,0,1,1-.552.552A.553.553,0,0,1,138.052,417.5Zm0,.737a.184.184,0,1,0-.184-.184A.184.184,0,0,0,138.052,418.237Z" transform="translate(-125.898 -403.872)" fill="#b31f24"/>
      <path id="Path_15" data-name="Path 15" d="M348.052,417.5a.552.552,0,1,1-.552.552A.553.553,0,0,1,348.052,417.5Zm0,.737a.184.184,0,1,0-.184-.184A.184.184,0,0,0,348.052,418.237Z" transform="translate(-343.633 -403.872)" fill="#b31f24"/>
      <path id="Path_16" data-name="Path 16" d="M224.421,367.868h-.737a.184.184,0,1,1,0-.368h.737a.184.184,0,1,1,0,.368Z" transform="translate(-215.065 -355.714)" fill="#ffc619"/>
      <path id="Path_17" data-name="Path 17" d="M40.189,146H41v-.368H39.563a.184.184,0,0,1-.184-.184v-.737a.184.184,0,1,1,.368,0v.552h.331v-1.1a.184.184,0,0,1,.184-.184h1.473v-1.289a.184.184,0,0,1,.184-.184h3.131a.184.184,0,0,1,.184.184v1.289h1.657a.184.184,0,0,1,.184.184v1.1h.405v-.552a.184.184,0,1,1,.368,0v.737a.184.184,0,0,1-.184.184H46.34V146h.873a1.8,1.8,0,0,1,1.62,1l.973,1.945h1.175a2.211,2.211,0,0,1,2.209,2.239s0,0,0,.007,0,.008,0,.012a2.212,2.212,0,0,1-2.209,2.161H50.6a1.656,1.656,0,0,1-.607,1.1H51.68a.184.184,0,1,1,0,.368H38.973a.184.184,0,1,1,0-.368H40.18a1.657,1.657,0,0,1-.607-1.1h-.467a1.608,1.608,0,0,1-1.606-1.606v-3.072A2.692,2.692,0,0,1,40.189,146Zm.258-.737h2.762v-.921H40.447Zm4.42-2.394H42.1v1.1h1.289a.184.184,0,0,1,.184.184v1.1H44.5v-1.1a.184.184,0,0,1,.184-.184h.184Zm1.842,1.473H44.866v.921h1.842Zm-.737,1.289h-4.6V146h4.6Zm-3.646,1.657v1.657h3.131v-1.657Zm-1.974,0a1.525,1.525,0,0,0-1.429,1l-.145.4a.193.193,0,0,0,.182.259h3v-1.657Zm5.473,1.657h3.569l-.829-1.657H45.824Zm6.984,2.431H52.27a.184.184,0,1,1,0-.368h.546a1.844,1.844,0,0,0-1.835-1.694H44.866v.737h5.525a.184.184,0,0,1,0,.368H44.866V153h2.441a1.657,1.657,0,0,1,3.294,0h.379A1.844,1.844,0,0,0,52.808,151.377Zm-2.564,1.8a1.289,1.289,0,1,0-1.289,1.289A1.291,1.291,0,0,0,50.244,153.181Zm-2.329,1.289a1.657,1.657,0,0,1-.607-1.1H42.867a1.657,1.657,0,0,1-.607,1.1Zm-6.695,0a1.289,1.289,0,1,0-1.289-1.289A1.291,1.291,0,0,0,41.22,154.47Zm-3.352-3.683h.1a.327.327,0,0,0,.328-.332v-.4h-.429Zm0-1.1h.613a.184.184,0,0,1,.184.184v.589a.7.7,0,0,1-.7.7h-.1v.368h1.657a.184.184,0,1,1,0,.368h-1.65a1.24,1.24,0,0,0,1.231,1.1h.467a1.657,1.657,0,0,1,3.294,0H44.5v-2.578H39.526a.184.184,0,1,1,0-.368H44.5v-.737H38.96a.562.562,0,0,1-.528-.753l.145-.4a1.894,1.894,0,0,1,1.775-1.243h8a1.433,1.433,0,0,0-1.135-.552H40.189a2.323,2.323,0,0,0-2.32,2.32Z" transform="translate(-36.8 -139.001)" fill="#646464"/>
      <circle id="Ellipse_2" data-name="Ellipse 2" cx="0.233" cy="0.233" r="0.233" transform="translate(0.509 6.056)" fill="#ffc619"/>
      <circle id="Ellipse_3" data-name="Ellipse 3" cx="0.233" cy="0.233" r="0.233" transform="translate(3.77 0.466)" fill="#ffc619"/>
      <circle id="Ellipse_4" data-name="Ellipse 4" cx="0.233" cy="0.233" r="0.233" transform="translate(9.36)" fill="#ffc619"/>
      <circle id="Ellipse_5" data-name="Ellipse 5" cx="0.233" cy="0.233" r="0.233" transform="translate(14.949)" fill="#b31f24"/>
      <circle id="Ellipse_6" data-name="Ellipse 6" cx="0.233" cy="0.233" r="0.233" transform="translate(11.689 3.727)" fill="#ffc619"/>
      <circle id="Ellipse_7" data-name="Ellipse 7" cx="0.466" cy="0.466" r="0.466" transform="translate(14.949 7.919)" fill="#b31f24"/>
      <path id="Path_18" data-name="Path 18" d="M68.421,154.342a.921.921,0,1,1,.921-.921A.922.922,0,0,1,68.421,154.342Zm0-1.473a.552.552,0,1,0,.552.552A.553.553,0,0,0,68.421,152.868Z" transform="translate(-54.056 -148.633)" fill="#b31f24"/>
      <path id="Path_19" data-name="Path 19" d="M413.789,85.078a1.289,1.289,0,1,1,1.289-1.289A1.291,1.291,0,0,1,413.789,85.078Zm0-2.21a.921.921,0,1,0,.921.921A.922.922,0,0,0,413.789,82.868Z" transform="translate(-412.5 -81.211)" fill="#b31f24"/>
    </g>
  </g>
</svg>
