<svg xmlns="http://www.w3.org/2000/svg" width="17.938" height="18.205" viewBox="0 0 17.938 18.205">
  <g id="tour-guide" transform="translate(-3.75 0)">
    <path id="Path_1452" data-name="Path 1452" d="M17.79,15.971a.267.267,0,0,0-.376.025l-1.1,1.257a.633.633,0,0,1-.924.031l-.847-.847v-.56a.267.267,0,0,0-.533,0v2.06a.267.267,0,1,0,.533,0v-.745l.47.47a1.166,1.166,0,0,0,1.7-.058l1.1-1.257a.267.267,0,0,0-.025-.376Zm-11.075-.36a.267.267,0,0,0-.267.267v2.06a.267.267,0,0,0,.533,0v-2.06A.267.267,0,0,0,6.715,15.612ZM21.483,4.228,19.7,2.775a.409.409,0,0,0-.667.317V6.52h0v4.325l-2.685,3.062-.851-1.588a2.8,2.8,0,0,0-2-1.434l-1.462-.24a.452.452,0,0,1-.38-.447V9.885a3.333,3.333,0,0,0,.581-.463A3.29,3.29,0,0,0,13.2,7.081V6.965h.1a.975.975,0,0,0,.653-1.7.861.861,0,0,0,.111-.767.846.846,0,0,0-.455-.5l-.084-.037V2.046A2.048,2.048,0,0,0,11.478,0H8.3A2.048,2.048,0,0,0,6.25,2.046v1.92L6.166,4a.845.845,0,0,0-.345,1.262.975.975,0,0,0,.653,1.7h.1v.116a3.312,3.312,0,0,0,1.55,2.8v.371a.444.444,0,0,1-.338.432l-2.214.546a2.4,2.4,0,0,0-1.825,2.33v4.375a.267.267,0,0,0,.533,0V13.562A1.863,1.863,0,0,1,5.7,11.75l1.715-.423A2.91,2.91,0,0,0,12.4,11.25l1,.164a2.266,2.266,0,0,1,1.621,1.159l.861,1.607a.518.518,0,0,0,.847.1l1.826-2.083,1.16,1.16,0,0-1.487,1.7a.267.267,0,0,0,.4.351l2.451-2.8a1.372,1.372,0,0,0-.174-1.949,1.35,1.35,0,0,0-1.35-.2V6.647l1.921-1.561a.553.553,0,0,0,0-.859ZM13.743,5.988a.448.448,0,0,1-.443.443h-.1V5.622a.849.849,0,0,0,.3-.032.446.446,0,0,1,.248.4Zm-7.166.443h-.1a.443.443,0,0,1-.2-.84.853.853,0,0,0,.3.032v.809Zm.066-1.366a.319.319,0,0,1-.409-.147.313.313,0,0,1,.148-.429,8.634,8.634,0,0,1,4.67-.664.267.267,0,1,0,.072-.528,9.167,9.167,0,0,0-4.341.457V2.046A1.514,1.514,0,0,1,8.3.533h3.182a1.514,1.514,0,0,1,1.513,1.513V3.754q-.306-.11-.619-.2a.267.267,0,1,0-.144.513,8.668,8.668,0,0,1,1.164.42.314.314,0,0,1,.149.428.318.318,0,0,1-.41.148,8.235,8.235,0,0,0-6.487,0Zm.467,2.016V5.447a7.489,7.489,0,0,1,5.553,0V7.081a2.777,2.777,0,1,1-5.553,0Zm2.776,5.084a2.371,2.371,0,0,1-1.919-.975,1,1,0,0,0,.693-1.033,3.315,3.315,0,0,0,2.453,0,.986.986,0,0,0,.721.993A2.361,2.361,0,0,1,9.887,12.164Zm10.693-1.09a.83.83,0,0,1,.105,1.181l-.612.7L18.91,11.792l.542-.618a.818.818,0,0,1,1.128-.1Zm.567-6.4L19.563,5.96V3.354l1.585,1.287a.023.023,0,0,1,0,.031ZM11.355,6.879a.267.267,0,0,0,.267-.267V6.024a.267.267,0,1,0-.533,0v.588A.267.267,0,0,0,11.355,6.879ZM8.419,5.758a.267.267,0,0,0-.267.267v.588a.267.267,0,1,0,.533,0V6.024A.267.267,0,0,0,8.419,5.758ZM10.708,8.2a.267.267,0,0,0-.362-.106.953.953,0,0,1-.918,0,.267.267,0,0,0-.257.468,1.494,1.494,0,0,0,.7.184,1.534,1.534,0,0,0,.731-.184A.267.267,0,0,0,10.708,8.2Z" fill="#646464"/>
  </g>
</svg>
