<svg xmlns="http://www.w3.org/2000/svg" width="17.943" height="17.943" viewBox="0 0 17.943 17.943">
  <g id="transport" transform="translate(-3 -3)">
    <path id="Path_1442" data-name="Path 1442" d="M22.523,18.832H10.253A1.255,1.255,0,0,1,9,17.579V4.253A1.255,1.255,0,0,1,10.253,3h12.27a1.255,1.255,0,0,1,1.253,1.253V17.579a1.255,1.255,0,0,1-1.253,1.253Zm-12.27-15.3a.726.726,0,0,0-.726.726V17.579a.726.726,0,0,0,.726.726h12.27a.726.726,0,0,0,.726-.726V4.253a.726.726,0,0,0-.726-.726Z" transform="translate(-4.417)" fill="#646464"/>
    <path id="Path_1443" data-name="Path 1443" d="M23.776,20.388H9V13H23.776ZM9.528,19.861H23.249V13.528H9.528Z" transform="translate(-4.417 -7.361)" fill="#646464"/>
    <path id="Path_1444" data-name="Path 1444" d="M48.319,48.639a1.319,1.319,0,1,1,1.319-1.319A1.319,1.319,0,0,1,48.319,48.639Zm0-2.111a.792.792,0,1,0,.792.792A.792.792,0,0,0,48.319,46.528Z" transform="translate(-32.39 -31.654)" fill="#b31f24"/>
    <path id="Path_1445" data-name="Path 1445" d="M18.319,48.639a1.319,1.319,0,1,1,1.319-1.319A1.319,1.319,0,0,1,18.319,48.639Zm0-2.111a.792.792,0,1,0,.792.792A.792.792,0,0,0,18.319,46.528Z" transform="translate(-10.306 -31.654)" fill="#b31f24"/>
    <path id="Path_1446" data-name="Path 1446" d="M48.589,63.639H46.841A.842.842,0,0,1,46,62.8V61h3.43v1.8A.842.842,0,0,1,48.589,63.639Zm-2.062-2.111V62.8a.314.314,0,0,0,.313.313h1.748A.314.314,0,0,0,48.9,62.8v-1.27Z" transform="translate(-31.654 -42.696)" fill="#646464"/>
    <path id="Path_1447" data-name="Path 1447" d="M17.589,63.639H15.841A.842.842,0,0,1,15,62.8V61h3.43v1.8A.842.842,0,0,1,17.589,63.639Zm-2.062-2.111V62.8a.314.314,0,0,0,.313.313h1.748A.314.314,0,0,0,17.9,62.8v-1.27Z" transform="translate(-8.834 -42.696)" fill="#646464"/>
    <path id="Path_1448" data-name="Path 1448" d="M65.847,19.738H64V19.21h1.319V16.528H64.264V16h1.583Z" transform="translate(-44.904 -9.57)" fill="#646464"/>
    <path id="Path_1449" data-name="Path 1449" d="M4.847,19.738H3V16H4.583v.528H3.528V19.21H4.847Z" transform="translate(0 -9.57)" fill="#646464"/>
    <path id="Path_1450" data-name="Path 1450" d="M36,14h.528v6.861H36Z" transform="translate(-24.292 -8.097)" fill="#646464"/>
    <path id="Path_1451" data-name="Path 1451" d="M31,50h3.166v.528H31Z" transform="translate(-20.612 -34.598)" fill="#ffc619"/>
  </g>
</svg>
