<svg id="travler" xmlns="http://www.w3.org/2000/svg" width="19.597" height="19.551" viewBox="0 0 19.597 19.551">
  <path id="Path_550" data-name="Path 550" d="M15.653,20.653v-.327a.327.327,0,1,0-.653,0v.327a.327.327,0,0,0,.653,0Z" transform="translate(-10.754 -14.166)" fill="#646464"/>
  <path id="Path_551" data-name="Path 551" d="M21.327,20.98a.327.327,0,0,0,.327-.327v-.327a.327.327,0,1,0-.653,0v.327A.327.327,0,0,0,21.327,20.98Z" transform="translate(-14.795 -14.166)" fill="#646464"/>
  <path id="Path_552" data-name="Path 552" d="M10.165,15.145H8.858v-.679a2.622,2.622,0,0,0,1.284-1.933h.349a.983.983,0,0,0,.98-.98v-.327a.975.975,0,0,0-.327-.725V8.286A1.633,1.633,0,0,0,9.512,6.653H9.185a.978.978,0,0,0-.545.167,1.539,1.539,0,0,0-.261-.343A1.635,1.635,0,0,0,7.226,6h-.98A2.289,2.289,0,0,0,3.96,8.286V10.5a.975.975,0,0,0-.327.725v.327a.983.983,0,0,0,.98.98h.349a2.622,2.622,0,0,0,1.284,1.933v.679H4.939A2.944,2.944,0,0,0,2,18.084v1.96a.327.327,0,0,0,.327.327v3.593a.327.327,0,0,0,.327.327h9.8a.327.327,0,0,0,.327-.327V20.37a.327.327,0,0,0,.327-.327v-1.96A2.944,2.944,0,0,0,10.165,15.145Zm.653-3.919v.327a.327.327,0,0,1-.327.327h-.327V10.9h.327A.327.327,0,0,1,10.818,11.226Zm-5.879.653H4.613a.327.327,0,0,1-.327-.327v-.327a.327.327,0,0,1,.327-.327h.327Zm0-1.96v.327H4.613V8.286A1.633,1.633,0,0,1,6.246,6.653h.98a.976.976,0,0,1,.98.98.327.327,0,0,0,.653,0,.327.327,0,0,1,.327-.327h.327a.983.983,0,0,1,.98.98v1.96h-.327V9.919a.983.983,0,0,0-.98-.98H5.919a.983.983,0,0,0-.98.98Zm.653,2.286V9.919a.327.327,0,0,1,.327-.327H9.185a.327.327,0,0,1,.327.327v2.286a1.96,1.96,0,1,1-3.919,0ZM6.246,15.8a.655.655,0,0,0,.653-.653v-.412a2.555,2.555,0,0,0,1.306,0v.412a.655.655,0,0,0,.653.653h.294a1.633,1.633,0,0,1-3.2,0Zm-1.96,7.838H2.98V20.37H4.286Zm7.838,0H10.818V20.37h1.306Zm.327-3.919H10.818v-.98a.327.327,0,0,0-.653,0v4.9H4.939v-4.9a.327.327,0,0,0-.653,0v.98H2.653V18.084A2.289,2.289,0,0,1,4.939,15.8h.353a2.283,2.283,0,0,0,4.52,0h.353a2.289,2.289,0,0,1,2.286,2.286Z" transform="translate(-2 -4.738)" fill="#646464"/>
  <path id="Path_553" data-name="Path 553" d="M44.858,25.266h-.98V22.653h.327a.327.327,0,1,0,0-.653H39.633a.327.327,0,0,0,0,.653h.327v2.613h-.98a.983.983,0,0,0-.98.98v7.838a.983.983,0,0,0,.98.98h5.879a.983.983,0,0,0,.98-.98V26.246A.983.983,0,0,0,44.858,25.266Zm-4.246-2.613h2.613v2.613H40.613Zm-1.96,3.593a.327.327,0,0,1,.327-.327h.327v.327a.327.327,0,0,1-.327.327h-.327Zm.653,8.165H38.98a.327.327,0,0,1-.327-.327v-.327h.327a.327.327,0,0,1,.327.327Zm5.879-.327a.327.327,0,0,1-.327.327h-.327v-.327a.327.327,0,0,1,.327-.327h.327Zm0-.98h-.327a.983.983,0,0,0-.98.98v.327H39.96v-.327a.983.983,0,0,0-.98-.98h-.327V27.225h.327a.983.983,0,0,0,.98-.98v-.327h3.919v.327a.983.983,0,0,0,.98.98h.327Zm0-6.532h-.327a.327.327,0,0,1-.327-.327v-.327h.327a.327.327,0,0,1,.327.327Z" transform="translate(-26.243 -15.513)" fill="#646464"/>
  <path id="Path_554" data-name="Path 554" d="M45.327,38a.327.327,0,0,0-.327.327v5.226a.327.327,0,0,0,.653,0V38.327A.327.327,0,0,0,45.327,38Z" transform="translate(-30.956 -26.287)" fill="#b31f24"/>
  <path id="Path_555" data-name="Path 555" d="M49.327,38a.327.327,0,0,0-.327.327v5.226a.327.327,0,0,0,.653,0V38.327A.327.327,0,0,0,49.327,38Z" transform="translate(-33.65 -26.287)" fill="#b31f24"/>
  <path id="Path_556" data-name="Path 556" d="M53.327,38a.327.327,0,0,0-.327.327v5.226a.327.327,0,0,0,.653,0V38.327A.327.327,0,0,0,53.327,38Z" transform="translate(-36.344 -26.287)" fill="#b31f24"/>
  <path id="Path_557" data-name="Path 557" d="M43.164,4.62a1.637,1.637,0,0,0-2-1.153l-.46.121L39.326,2.383a.977.977,0,0,0-.9-.212l-.924.248a.32.32,0,0,0-.229.222.327.327,0,0,0,.069.31l1.1,1.244-2,.532-.3-.356a.987.987,0,0,0-1-.31l-.865.232a.333.333,0,0,0-.225.212.344.344,0,0,0,.052.307L35.384,6.43a.984.984,0,0,0,1.022.34l2.387-.64L38.532,7.4a.323.323,0,0,0,.1.3.314.314,0,0,0,.222.088.356.356,0,0,0,.085-.01l.924-.248a.971.971,0,0,0,.673-.634L41,5.538l1.933-.516A.329.329,0,0,0,43.164,4.62ZM38.18,2.912l.415-.111a.327.327,0,0,1,.3.072l1.048.921-.794.212Zm1.737,3.779a.327.327,0,0,1-.225.212l-.412.111.291-1.43.794-.212Zm1.267-1.878a.353.353,0,0,0-.078-.14.324.324,0,0,0-.32-.091l-1.577.425a.316.316,0,0,0-.235.248l-.033.16-2.7.725a.331.331,0,0,1-.34-.114L34.93,4.8l.385-.1a.327.327,0,0,1,.333.1l.438.513a.33.33,0,0,0,.333.1l2.7-.725L40.7,4.268v0l.63-.167a.98.98,0,0,1,1.061.392Z" transform="translate(-23.578 -2.137)" fill="#646464"/>
  <path id="Path_558" data-name="Path 558" d="M17.755,26.323a.327.327,0,1,0-.523-.392.673.673,0,0,1-1.045,0,.327.327,0,1,0-.523.392,1.306,1.306,0,0,0,2.09,0Z" transform="translate(-11.158 -18.072)" fill="#646464"/>
</svg>
