<svg width="139" height="26" viewBox="0 0 139 26" fill="none" xmlns="http://www.w3.org/2000/svg">
<path d="M130.656 0.400391L113.832 6.31839H138.363L130.656 0.400391Z" fill="#6F0205"/>
<path d="M8.3508 0.394531L25.4978 6.53253H0.966797L8.3508 0.394531Z" fill="#6F0205"/>
<path d="M69.4609 25.6094L8.2509 0.390375L130.671 0.390375L69.4609 25.6094Z" fill="#B31F24"/>
<path d="M75.2599 12.9216L69.6599 7.32156L64.0599 12.9216C64.0106 12.9709 63.9436 12.9986 63.8739 12.9986C63.8041 12.9986 63.7372 12.9709 63.6879 12.9216C63.6386 12.8722 63.6108 12.8053 63.6108 12.7356C63.6108 12.6658 63.6386 12.5989 63.6879 12.5496L69.4729 6.76456C69.4973 6.74013 69.5263 6.72076 69.5582 6.70753C69.5901 6.69431 69.6243 6.6875 69.6589 6.6875C69.6934 6.6875 69.7276 6.69431 69.7595 6.70753C69.7915 6.72076 69.8205 6.74013 69.8449 6.76456L75.6299 12.5496C75.6764 12.5987 75.7022 12.664 75.7018 12.7317C75.7015 12.7993 75.675 12.8643 75.628 12.913C75.581 12.9617 75.517 12.9904 75.4494 12.9931C75.3817 12.9958 75.3157 12.9723 75.2649 12.9276L75.2589 12.9216H75.2599Z" fill="white" stroke="white"/>
<path d="M69.6599 6.6875C69.6253 6.68749 69.5911 6.69428 69.5592 6.7075C69.5273 6.72071 69.4983 6.74008 69.4739 6.7645L63.6879 12.5495C63.6386 12.5988 63.6108 12.6657 63.6108 12.7355C63.6108 12.8053 63.6386 12.8722 63.6879 12.9215C63.7372 12.9708 63.8041 12.9985 63.8739 12.9985C63.9436 12.9985 64.0106 12.9708 64.0599 12.9215L69.6599 7.3215L75.2599 12.9215C75.2834 12.9482 75.3121 12.9698 75.3441 12.985C75.3762 13.0003 75.4111 13.0089 75.4466 13.0104C75.4821 13.0118 75.5175 13.006 75.5508 12.9933C75.584 12.9807 75.6143 12.9614 75.6398 12.9368C75.6654 12.9121 75.6857 12.8825 75.6995 12.8497C75.7133 12.817 75.7203 12.7817 75.7201 12.7462C75.72 12.7107 75.7126 12.6755 75.6984 12.6429C75.6843 12.6103 75.6637 12.5809 75.6379 12.5565L75.6319 12.5505L69.8459 6.7645C69.8215 6.74008 69.7925 6.72071 69.7605 6.7075C69.7286 6.69428 69.6944 6.68749 69.6599 6.6875Z" fill="white" stroke="white"/>
</svg>
